<svg width="12" height="12" viewBox="0 0 12 12" fill="none" xmlns="http://www.w3.org/2000/svg">
<path d="M10.4986 2.4997L1.49861 2.4997C1.40749 2.49999 1.31818 2.52512 1.24028 2.57239C1.16238 2.61966 1.09884 2.68729 1.05652 2.76798C1.01419 2.84867 0.994672 2.93938 1.00006 3.03035C1.00545 3.12131 1.03555 3.20908 1.08711 3.2842L5.58711 9.7842C5.77361 10.0537 6.22261 10.0537 6.40961 9.7842L10.9096 3.2842C10.9617 3.20923 10.9922 3.12142 10.9979 3.03031C11.0036 2.93919 10.9842 2.84826 10.9419 2.7674C10.8995 2.68654 10.8358 2.61883 10.7576 2.57163C10.6795 2.52444 10.5899 2.49956 10.4986 2.4997Z" fill="#F5F5F5"/>
</svg>
