<svg width="18" height="18" viewBox="0 0 18 18" fill="none" xmlns="http://www.w3.org/2000/svg">
<path d="M6.00122 0C6.20013 0 6.3909 0.0790176 6.53155 0.21967C6.6722 0.360322 6.75122 0.551088 6.75122 0.75V1.5H11.2512V0.75C11.2512 0.551088 11.3302 0.360322 11.4709 0.21967C11.6115 0.0790176 11.8023 0 12.0012 0C12.2001 0 12.3909 0.0790176 12.5316 0.21967C12.6722 0.360322 12.7512 0.551088 12.7512 0.75V1.5H14.8347C15.1521 1.5 15.4663 1.5625 15.7595 1.68395C16.0527 1.80539 16.3191 1.98338 16.5434 2.20778C16.7678 2.43217 16.9458 2.69856 17.0673 2.99175C17.1887 3.28493 17.2512 3.59916 17.2512 3.9165V15.5835C17.2512 15.9008 17.1887 16.2151 17.0673 16.5083C16.9458 16.8014 16.7678 17.0678 16.5434 17.2922C16.3191 17.5166 16.0527 17.6946 15.7595 17.8161C15.4663 17.9375 15.1521 18 14.8347 18H3.16772C2.52683 18 1.91218 17.7454 1.459 17.2922C1.00582 16.839 0.751221 16.2244 0.751221 15.5835V3.9165C0.751221 3.2756 1.00582 2.66096 1.459 2.20778C1.91218 1.75459 2.52683 1.5 3.16772 1.5H5.25122V0.75C5.25122 0.551088 5.33024 0.360322 5.47089 0.21967C5.61154 0.0790176 5.80231 0 6.00122 0V0ZM5.25122 3H3.16772C2.66147 3 2.25122 3.41025 2.25122 3.9165V6.75H15.7512V3.9165C15.7512 3.41025 15.341 3 14.8347 3H12.7512V3.75C12.7512 3.94891 12.6722 4.13968 12.5316 4.28033C12.3909 4.42098 12.2001 4.5 12.0012 4.5C11.8023 4.5 11.6115 4.42098 11.4709 4.28033C11.3302 4.13968 11.2512 3.94891 11.2512 3.75V3H6.75122V3.75C6.75122 3.94891 6.6722 4.13968 6.53155 4.28033C6.3909 4.42098 6.20013 4.5 6.00122 4.5C5.80231 4.5 5.61154 4.42098 5.47089 4.28033C5.33024 4.13968 5.25122 3.94891 5.25122 3.75V3ZM15.7512 8.25H2.25122V15.5835C2.25122 16.0898 2.66147 16.5 3.16772 16.5H14.8347C15.341 16.5 15.7512 16.0898 15.7512 15.5835V8.25Z" fill="#F5F5F5"/>
</svg>
