<svg width="16" height="16" viewBox="0 0 127 66" fill="none" xmlns="http://www.w3.org/2000/svg">
<path d="M29.7879 53.0716C29.7079 52.2604 29.4999 51.5288 29.1639 50.8767C28.8279 50.2246 28.3639 49.7078 27.7719 49.326C27.1799 48.9284 26.4439 48.7376 25.5639 48.7535C24.6679 48.7535 23.9559 49 23.4279 49.493C22.8999 49.9861 22.6359 50.5825 22.6359 51.2823C22.6359 51.9026 22.8119 52.4274 23.1639 52.8569C23.5159 53.2704 23.9879 53.6441 24.5799 53.9781C25.1879 54.3121 25.8679 54.6461 26.6199 54.9801C27.2279 55.2346 27.8439 55.5209 28.4679 55.839C29.0919 56.1571 29.6599 56.5229 30.1719 56.9364C30.6839 57.334 31.0919 57.8191 31.3959 58.3916C31.6999 58.9483 31.8519 59.6083 31.8519 60.3718C31.8519 61.2624 31.6199 62.0576 31.1559 62.7575C30.6919 63.4573 30.0279 64.006 29.1639 64.4036C28.3159 64.8012 27.2839 65 26.0679 65C25.3799 65 24.6519 64.8966 23.8839 64.6899C23.1319 64.4831 22.4439 64.1889 21.8199 63.8072L21.9399 64.8091H20.4759L20.3799 59.5606H21.5319C21.6599 60.9443 22.1559 61.994 23.0199 62.7097C23.8999 63.4095 24.9479 63.7594 26.1639 63.7594C26.7719 63.7594 27.3239 63.6481 27.8199 63.4254C28.3159 63.2028 28.7079 62.8847 28.9959 62.4712C29.2839 62.0577 29.4279 61.5726 29.4279 61.0159C29.4279 60.3638 29.2279 59.8151 28.8279 59.3698C28.4439 58.9244 27.9479 58.5427 27.3399 58.2246C26.7479 57.9066 26.1239 57.6044 25.4679 57.3181C24.8119 57.0318 24.1719 56.7296 23.5479 56.4115C22.9399 56.0934 22.3879 55.7276 21.8919 55.3141C21.3959 54.9006 21.0039 54.4155 20.7159 53.8588C20.4279 53.2863 20.2839 52.6183 20.2839 51.8549C20.2839 51.4095 20.3639 50.9404 20.5239 50.4473C20.6839 49.9543 20.9559 49.4851 21.3399 49.0398C21.7239 48.5944 22.2439 48.2366 22.8999 47.9662C23.5719 47.6799 24.4119 47.5368 25.4199 47.5368C26.0279 47.5368 26.7079 47.6242 27.4599 47.7992C28.2279 47.9741 28.9239 48.2843 29.5479 48.7296L29.4519 47.7276H30.8919V53.0716H29.7879Z" fill="#60604C"/>
<path d="M33.2006 64.6183V63.5447C33.6806 63.5447 34.0486 63.4175 34.3046 63.163C34.5606 62.9085 34.7766 62.5666 34.9526 62.1372C35.1286 61.6918 35.3206 61.1988 35.5286 60.658L40.3766 47.4652H41.3366L46.5926 60.8489C46.7206 61.1511 46.8646 61.5646 47.0246 62.0895C47.1846 62.5984 47.2566 63.0358 47.2406 63.4016C47.5126 63.3698 47.7766 63.3539 48.0326 63.3539C48.3046 63.338 48.5606 63.3221 48.8006 63.3062V64.6183H42.9686V63.5686C43.5286 63.5527 43.8966 63.4334 44.0726 63.2107C44.2646 62.9722 44.3366 62.6859 44.2886 62.3519C44.2566 62.0179 44.1766 61.6839 44.0486 61.3499L43.3286 59.4175L37.4486 59.5606L36.7526 61.6362C36.6566 61.9543 36.5526 62.2565 36.4406 62.5427C36.3286 62.829 36.2166 63.1073 36.1046 63.3777C36.3926 63.3459 36.6966 63.33 37.0166 63.33C37.3526 63.3141 37.6486 63.2982 37.9046 63.2823V64.6183H33.2006ZM37.8806 58.2724H42.9206L41.4086 54.2406C41.2166 53.7157 41.0326 53.1988 40.8566 52.6899C40.6806 52.165 40.5206 51.664 40.3766 51.1869H40.3526C40.2246 51.5845 40.0806 52.0219 39.9206 52.499C39.7606 52.9761 39.5766 53.493 39.3686 54.0497L37.8806 58.2724Z" fill="#60604C"/>
<path d="M62.0839 53.0716C62.0679 52.165 61.9639 51.4095 61.7719 50.8052C61.5799 50.2008 61.2599 49.7475 60.8119 49.4453C60.3799 49.1431 59.7799 49 59.0119 49.0159H57.2839L57.2599 61.4215C57.2599 61.8509 57.2519 62.2406 57.2359 62.5905C57.2359 62.9244 57.2199 63.1948 57.1879 63.4016C57.4919 63.3698 57.8199 63.3539 58.1719 63.3539C58.5399 63.338 58.8679 63.3221 59.1559 63.3062V64.6183H53.0599V63.5686C53.5879 63.5368 53.9639 63.4254 54.1879 63.2346C54.4119 63.0437 54.5559 62.7575 54.6199 62.3757C54.6839 61.9781 54.7159 61.493 54.7159 60.9205V49.0398L52.6999 49.0636C51.7239 49.0636 51.0119 49.3897 50.5639 50.0417C50.1159 50.6938 49.8919 51.7038 49.8919 53.0716H48.7639L48.9079 47.9185H63.0679L63.2119 53.0716H62.0839Z" fill="#60604C"/>
<path d="M73.6897 65C72.1697 65 70.8657 64.7455 69.7777 64.2366C68.7057 63.7276 67.8337 63.0517 67.1617 62.2087C66.4897 61.3499 65.9937 60.4036 65.6737 59.3698C65.3537 58.336 65.1937 57.3022 65.1937 56.2684C65.1937 55.2664 65.3617 54.2565 65.6977 53.2386C66.0497 52.2048 66.5697 51.2584 67.2577 50.3996C67.9617 49.5407 68.8337 48.8489 69.8737 48.3241C70.9297 47.7992 72.1617 47.5368 73.5697 47.5368C75.0417 47.5368 76.3057 47.7992 77.3617 48.3241C78.4337 48.8489 79.3137 49.5487 80.0017 50.4235C80.6897 51.2823 81.2017 52.2207 81.5377 53.2386C81.8897 54.2565 82.0657 55.2664 82.0657 56.2684C82.0657 57.2545 81.8897 58.2644 81.5377 59.2982C81.2017 60.3161 80.6817 61.2624 79.9777 62.1372C79.2897 62.996 78.4257 63.6879 77.3857 64.2127C76.3457 64.7376 75.1137 65 73.6897 65ZM73.8097 63.7594C74.7377 63.7594 75.5377 63.5527 76.2097 63.1392C76.8977 62.7256 77.4577 62.1769 77.8897 61.493C78.3377 60.7932 78.6657 60.0298 78.8737 59.2028C79.0817 58.3598 79.1857 57.5248 79.1857 56.6978C79.1857 55.6799 79.0657 54.7018 78.8257 53.7634C78.5857 52.8091 78.2177 51.9582 77.7217 51.2107C77.2417 50.4473 76.6417 49.8509 75.9217 49.4215C75.2017 48.9761 74.3697 48.7535 73.4257 48.7535C72.4977 48.7535 71.6897 48.9682 71.0017 49.3976C70.3137 49.827 69.7537 50.3916 69.3217 51.0914C68.8897 51.7753 68.5617 52.5388 68.3377 53.3817C68.1297 54.2087 68.0257 55.0437 68.0257 55.8867C68.0257 56.7137 68.1377 57.5885 68.3617 58.5109C68.5857 59.4334 68.9297 60.2922 69.3937 61.0875C69.8577 61.8827 70.4497 62.5268 71.1697 63.0199C71.9057 63.5129 72.7857 63.7594 73.8097 63.7594Z" fill="#60604C"/>
<path d="M84.5705 64.6183V63.5686C85.0985 63.5368 85.4745 63.4254 85.6985 63.2346C85.9385 63.0437 86.0905 62.7575 86.1545 62.3757C86.2186 61.994 86.2505 61.5089 86.2505 60.9205V50.996C86.2505 50.6461 86.2585 50.3121 86.2745 49.994C86.2905 49.66 86.3065 49.3738 86.3225 49.1352C86.0505 49.1511 85.7545 49.167 85.4345 49.1829C85.1145 49.1988 84.8265 49.2147 84.5705 49.2306V47.9185C85.5465 47.9026 86.5305 47.8946 87.5225 47.8946C88.5145 47.8787 89.5145 47.8787 90.5225 47.8946C92.0265 47.8946 93.2665 48.0696 94.2425 48.4195C95.2185 48.7535 95.9465 49.2545 96.4265 49.9225C96.9225 50.5905 97.1625 51.4334 97.1465 52.4513C97.1625 53.0875 97.0345 53.7237 96.7626 54.3598C96.4905 54.9801 96.0345 55.5368 95.3945 56.0298C94.7545 56.5229 93.8745 56.8966 92.7545 57.1511C93.0745 57.3419 93.3625 57.6044 93.6185 57.9384C93.8745 58.2724 94.1385 58.6461 94.4105 59.0596L95.8745 61.3022C96.1786 61.7793 96.4585 62.1849 96.7145 62.5189C96.9706 62.8529 97.2585 63.1153 97.5785 63.3062C97.8985 63.4811 98.2825 63.5686 98.7305 63.5686V64.6183H95.3945C94.9785 64.2684 94.6185 63.8946 94.3145 63.497C94.0265 63.0835 93.7145 62.6223 93.3785 62.1133L91.7225 59.4413C91.5145 59.1233 91.2905 58.7813 91.0505 58.4155C90.8265 58.0497 90.5786 57.7396 90.3065 57.4851C90.0506 57.4851 89.7945 57.4851 89.5385 57.4851C89.2985 57.4851 89.0505 57.4851 88.7945 57.4851V61.4215C88.7945 61.8509 88.7865 62.2406 88.7705 62.5905C88.7705 62.9244 88.7545 63.1948 88.7225 63.4016C88.9146 63.3857 89.1145 63.3777 89.3225 63.3777C89.5465 63.3618 89.7625 63.3459 89.9705 63.33C90.1945 63.3141 90.3866 63.3062 90.5465 63.3062V64.6183H84.5705ZM90.1865 56.3161C91.0665 56.3002 91.8185 56.165 92.4425 55.9105C93.0665 55.6402 93.5465 55.2346 93.8825 54.6938C94.2185 54.1372 94.3865 53.4215 94.3865 52.5467C94.3865 51.8946 94.2906 51.3459 94.0985 50.9006C93.9065 50.4553 93.6345 50.0974 93.2825 49.827C92.9305 49.5408 92.5065 49.3419 92.0105 49.2306C91.5305 49.1034 91.0105 49.0398 90.4505 49.0398C89.9385 49.0398 89.5625 49.1352 89.3225 49.326C89.0985 49.5169 88.9546 49.7952 88.8905 50.161C88.8265 50.5268 88.7945 50.996 88.7945 51.5686V56.2445C89.0345 56.2604 89.2585 56.2843 89.4665 56.3161C89.6905 56.332 89.9305 56.332 90.1865 56.3161Z" fill="#60604C"/>
<path d="M106.494 48.9682C105.982 48.9841 105.606 49.0954 105.366 49.3022C105.126 49.493 104.974 49.7793 104.91 50.161C104.846 50.5268 104.814 51.0119 104.814 51.6163V61.4215C104.814 61.8509 104.806 62.2406 104.79 62.5905C104.79 62.9244 104.774 63.1948 104.742 63.4016C105.014 63.3698 105.31 63.3539 105.63 63.3539C105.966 63.338 106.254 63.3221 106.494 63.3062V64.6183H100.59V63.5686C101.118 63.5368 101.494 63.4254 101.718 63.2346C101.958 63.0437 102.11 62.7575 102.174 62.3757C102.238 61.994 102.27 61.5089 102.27 60.9205V50.996C102.27 50.6461 102.278 50.3121 102.294 49.994C102.31 49.66 102.326 49.3738 102.342 49.1352C102.07 49.1511 101.774 49.167 101.454 49.1829C101.134 49.1988 100.846 49.2147 100.59 49.2306V47.9185H106.494V48.9682Z" fill="#60604C"/>
<path d="M64.9867 5.36913C65.1308 5.28694 65.245 5.31263 65.3238 5.44361C65.4054 5.55918 65.3809 5.66448 65.2504 5.76208C64.5898 6.20383 63.9211 6.56339 63.2442 6.84077C62.5673 7.11815 61.8877 7.33132 61.2026 7.47771C60.5176 7.6241 59.8298 7.7217 59.1366 7.7705C58.4434 7.81929 57.7502 7.8347 57.0597 7.81929C56.9782 7.90148 56.6737 8.2482 56.1409 8.85946C55.6081 9.47072 54.9557 10.2386 54.1836 11.1632C53.4116 12.0853 52.5716 13.1074 51.669 14.2247C50.7665 15.3444 49.9048 16.4616 49.0838 17.5814C48.2628 18.7012 47.537 19.7542 46.909 20.7405C46.2811 21.7292 45.8488 22.5537 45.6151 23.2137C45.3813 23.8764 45.4057 24.313 45.6885 24.5236C45.9712 24.7367 46.6182 24.6212 47.6349 24.1794C48.2791 23.902 48.9642 23.5425 49.69 23.1007C50.4158 22.659 51.1389 22.1915 51.8648 21.6933C52.5906 21.195 53.2974 20.6814 53.9906 20.1497C54.6838 19.6181 55.3145 19.1198 55.8881 18.655C56.459 18.1901 56.9591 17.7741 57.3859 17.4068C57.8127 17.0395 58.1308 16.7673 58.3401 16.5849C58.4679 16.4873 58.5821 16.495 58.6772 16.6106C58.7751 16.7262 58.7669 16.8392 58.6527 16.9548C58.5875 17.019 58.3863 17.1988 58.0492 17.4941C57.7094 17.7869 57.2826 18.1516 56.7689 18.5831C56.2524 19.0171 55.6652 19.4948 55.0046 20.0162C54.344 20.5401 53.6508 21.0615 52.9277 21.5829C52.2019 22.1068 51.4624 22.6076 50.704 23.0905C49.9455 23.5733 49.217 23.9894 48.5156 24.3387C47.8143 24.6905 47.1591 24.9473 46.5448 25.1091C45.9331 25.2709 45.4003 25.3043 44.949 25.2067C44.37 25.0603 44.0465 24.7213 43.9813 24.1897C43.916 23.6581 44.0384 22.998 44.3428 22.2044C44.65 21.4133 45.1013 20.5299 45.6966 19.559C46.292 18.5882 46.9525 17.5943 47.6784 16.5824C48.4042 15.5704 49.1572 14.5739 49.9374 13.5929C50.7176 12.6118 51.4516 11.718 52.1366 10.9115C52.8217 10.1025 53.417 9.41678 53.9254 8.85432C54.4337 8.29186 54.7762 7.91175 54.9529 7.71399C54.1945 7.66519 53.4306 7.61126 52.6558 7.55476C51.8838 7.49826 51.1281 7.47257 50.3968 7.48028C49.6628 7.48798 48.9506 7.55733 48.2574 7.68831C47.5642 7.81929 46.9199 8.04017 46.3246 8.35093C46.1968 8.41771 46.0908 8.37662 46.0092 8.22765C45.944 8.09667 45.9848 7.99137 46.1288 7.90918C46.7731 7.56503 47.4663 7.33388 48.2085 7.21061C48.9479 7.08733 49.7199 7.01798 50.5164 7.00257C51.3129 6.98716 52.1203 7.01541 52.9331 7.08733C53.7459 7.16181 54.556 7.22088 55.3607 7.27224C55.763 6.8305 56.0865 6.4735 56.3285 6.19355C56.5704 5.91618 56.7661 5.6953 56.9211 5.53093C57.0733 5.36913 57.212 5.25355 57.3316 5.18678C57.4512 5.12257 57.6061 5.08405 57.791 5.07634C57.9759 5.06864 58.2042 5.0712 58.4788 5.08918C58.7533 5.10459 59.123 5.11487 59.5906 5.11487L57.4648 7.34416C58.1091 7.34416 58.7506 7.31591 59.3867 7.2594C60.0228 7.2029 60.659 7.10017 61.2951 6.95377C61.9312 6.80738 62.5564 6.60705 63.1681 6.35279C63.7797 6.1011 64.3832 5.76978 64.9813 5.36142L64.9867 5.36913Z" fill="#60604C"/>
<path d="M64.7215 1.20356C64.7541 1.04176 64.8411 0.974983 64.9879 1.00837C65.1483 1.00837 65.2135 1.09056 65.1809 1.25236C65.1156 1.80711 65.2135 2.29252 65.4718 2.71116C65.73 3.12722 66.0671 3.48679 66.4857 3.78985C66.9044 4.09291 67.3747 4.34974 67.8993 4.56034C68.4213 4.77351 68.9187 4.94302 69.3863 5.074C70.7401 4.11089 71.9634 3.44826 73.059 3.0887C74.1545 2.72914 75.1059 2.57761 75.9106 2.63668C76.7153 2.69318 77.3758 2.91406 77.8923 3.2993C78.4089 3.68455 78.7568 4.14427 78.9444 4.68362C79.1292 5.22296 79.151 5.7957 79.0042 6.39925C78.8601 7.0028 78.5285 7.54215 78.0147 8.01728C77.5308 8.45903 77.0469 8.77237 76.5658 8.95985C76.0819 9.14734 75.6197 9.24237 75.1766 9.24237C74.7335 9.24237 74.3393 9.15248 73.9914 8.97269C73.6434 8.79291 73.3743 8.56433 73.1813 8.28696C72.9883 8.00958 72.8904 7.69111 72.8904 7.33155C72.8904 6.97198 73.0182 6.60471 73.2764 6.22974L70.6667 5.86247C69.6989 6.5816 68.7257 7.41116 67.7417 8.3486C66.7576 9.2886 65.7708 10.3082 64.7813 11.41C63.7917 12.5118 62.7995 13.6804 61.81 14.9132C60.8178 16.146 59.8391 17.425 58.8741 18.7477C59.0508 18.6013 59.3117 18.3881 59.6597 18.1107C60.0049 17.8334 60.3964 17.5483 60.8314 17.2529C61.2663 16.9576 61.7203 16.6776 62.196 16.4079C62.6717 16.1383 63.123 15.9354 63.5498 15.7967C63.9766 15.658 64.3599 15.6092 64.697 15.6503C65.0341 15.6914 65.2923 15.8737 65.469 16.2025C65.6131 16.4799 65.6186 16.8266 65.4799 17.2426C65.344 17.6587 65.1265 18.1133 64.8275 18.6013C64.5285 19.0918 64.1914 19.5926 63.8135 20.1089C63.4356 20.6225 63.0768 21.1182 62.737 21.5908C62.3972 22.0659 62.1199 22.4923 61.9024 22.8775C61.685 23.2628 61.5925 23.5633 61.6252 23.7841C61.6578 24.005 61.8453 24.1283 62.1933 24.1514C62.5385 24.1771 63.1149 24.0564 63.9222 23.797C64.9688 23.4528 66.1106 23.0008 67.342 22.4383C68.5735 21.8759 69.7859 21.2595 70.9793 20.5891C72.17 19.9188 73.2819 19.2331 74.3149 18.5319C75.3452 17.8308 76.1824 17.1836 76.8294 16.5954C76.9409 16.4978 77.0551 16.5055 77.1665 16.6211C77.2644 16.7367 77.2535 16.8497 77.1421 16.9653C76.563 17.4892 75.9024 18.0183 75.1603 18.5576C74.4182 19.097 73.6325 19.6158 72.8034 20.114C71.9743 20.6123 71.1234 21.0951 70.2535 21.56C69.3836 22.0248 68.53 22.446 67.6927 22.821C67.4182 22.9366 67.0729 23.083 66.6543 23.2628C66.2356 23.4425 65.7844 23.6223 65.3005 23.8021C64.8166 23.9819 64.3164 24.1463 63.8026 24.2927C63.2861 24.439 62.7995 24.5546 62.3401 24.6368C61.8807 24.719 61.4729 24.7421 61.1195 24.7113C60.7661 24.6779 60.5079 24.5649 60.3475 24.3671C60.1708 24.154 60.1246 23.8483 60.2143 23.4477C60.3013 23.047 60.4671 22.5976 60.709 22.0993C60.951 21.6011 61.2418 21.0797 61.5789 20.5326C61.916 19.9856 62.2395 19.4642 62.5467 18.966C62.8512 18.4677 63.1149 18.0183 63.3323 17.6176C63.5498 17.217 63.6613 16.9165 63.6694 16.711C63.6776 16.5081 63.5525 16.4208 63.2943 16.4542C63.036 16.4876 62.5848 16.6905 61.9405 17.0654C61.4566 17.3428 60.9727 17.6587 60.4916 18.008C60.0077 18.3599 59.5537 18.7194 59.1269 19.0867C58.7001 19.454 58.3141 19.8135 57.9661 20.1654C57.6209 20.5172 57.349 20.8306 57.156 21.1079C57.0119 21.1079 56.8108 21.1157 56.5525 21.1336C56.2943 21.149 56.0578 21.149 55.8403 21.1336C55.6228 21.1182 55.4543 21.0797 55.3319 21.0232C55.2123 20.9667 55.2069 20.864 55.3211 20.7176C55.8376 19.9676 56.3486 19.2511 56.857 18.573C57.3653 17.895 57.8601 17.2375 58.344 16.6006C60.0022 14.4278 61.549 12.5632 62.9844 11.0042C64.417 9.44526 65.7463 8.12515 66.9723 7.04903C67.3094 6.73827 67.6411 6.44805 67.9646 6.17837C68.2853 5.9087 68.6007 5.65958 68.9079 5.431C68.3914 5.2846 67.8721 5.09198 67.3502 4.8557C66.8255 4.61941 66.358 4.32919 65.9475 3.98504C65.537 3.64089 65.2135 3.2428 64.9797 2.78564C64.7459 2.32848 64.6616 1.80455 64.7269 1.21897L64.7215 1.20356ZM73.6869 5.75974C74.0077 5.49777 74.3285 5.33083 74.6411 5.25635C74.9564 5.18187 75.2283 5.1716 75.4621 5.2204C75.6958 5.26919 75.8698 5.35908 75.9813 5.49007C76.0927 5.62105 76.1009 5.7469 76.0057 5.87018C75.9079 5.99346 75.6904 6.09362 75.3533 6.17581C75.0162 6.25799 74.516 6.28111 73.8555 6.25029C73.4368 6.67406 73.2791 7.10297 73.3852 7.53701C73.4912 7.97105 73.7549 8.2998 74.1817 8.52838C74.6085 8.75696 75.144 8.8263 75.7883 8.73641C76.4325 8.64652 77.0687 8.29209 77.6966 7.67056C78.1153 7.2622 78.398 6.81788 78.5421 6.33504C78.6861 5.85477 78.6943 5.40531 78.5665 4.98668C78.436 4.57061 78.1751 4.21876 77.7809 3.93367C77.3867 3.64859 76.8784 3.49192 76.2586 3.46881C75.6388 3.44313 74.9021 3.58438 74.0485 3.88488C73.1949 4.18794 72.2434 4.71444 71.1968 5.46439L73.6869 5.75717V5.75974Z" fill="#60604C"/>
<path d="M87.3147 16.5895C87.3473 16.5561 87.3962 16.5407 87.4587 16.5407C87.6191 16.5407 87.7007 16.6229 87.7007 16.7847C87.7007 16.8489 87.6762 16.908 87.6273 16.9568C87.611 16.9722 87.3935 17.1571 86.9749 17.509C86.5562 17.8608 86.0071 18.2974 85.3302 18.8188C84.6533 19.3427 83.8894 19.9078 83.0358 20.5216C82.1822 21.1328 81.3151 21.7004 80.437 22.2244C79.5589 22.7483 78.7053 23.1798 77.8762 23.5239C77.0471 23.8681 76.3186 24.0376 75.6879 24.0376C75.1251 24.0376 74.682 23.8707 74.3585 23.5342C74.035 23.2003 73.8747 22.738 73.8747 22.1499C73.8747 21.7415 73.9562 21.2972 74.1166 20.8144C74.277 20.3341 74.4945 19.8435 74.769 19.3453C75.0436 18.847 75.3562 18.3616 75.7123 17.8891C76.0657 17.4165 76.4382 16.9825 76.8242 16.5895C77.3081 16.099 77.7947 15.6983 78.2867 15.3901C78.7787 15.0793 79.2083 14.9252 79.5807 14.9252C79.8063 14.9252 79.9721 14.9894 80.0754 15.1204C80.1787 15.2514 80.2331 15.4132 80.2331 15.611C80.2331 16.0193 80.0646 16.42 79.7248 16.8104C79.3877 17.2033 79.0125 17.5578 78.602 17.8762C78.1916 18.1947 77.8001 18.4721 77.4304 18.7084C77.0607 18.9446 76.8432 19.1116 76.778 19.2117C76.2615 19.9797 75.8754 20.65 75.6172 21.2202C75.3589 21.7929 75.2312 22.2655 75.2312 22.6404C75.2312 23.2132 75.522 23.4982 76.1011 23.4982C76.536 23.4982 77.0906 23.3467 77.7675 23.0462C78.4444 22.7432 79.1702 22.3656 79.9422 21.9059C80.7143 21.4487 81.4999 20.9376 82.2991 20.3752C83.0984 19.8127 83.8378 19.276 84.5228 18.77C85.2079 18.264 85.8005 17.812 86.298 17.4114C86.7982 17.0107 87.1353 16.7385 87.312 16.5895H87.3147ZM77.3353 18.1562C77.6887 17.943 78.0149 17.7144 78.3139 17.4704C78.6129 17.2264 78.8657 16.9979 79.0751 16.7847C79.2844 16.5715 79.4448 16.384 79.5589 16.2222C79.6704 16.0604 79.7275 15.9449 79.7275 15.8781C79.7275 15.8447 79.7112 15.8293 79.6786 15.8293C79.6296 15.8293 79.529 15.8704 79.3768 15.9526C79.2246 16.0347 79.0397 16.1683 78.8222 16.3558C78.6048 16.5433 78.3655 16.7847 78.11 17.0775C77.8518 17.3703 77.5935 17.7298 77.3353 18.1562Z" fill="#60604C"/>
<path d="M0 15.6857H32.437M96.5633 15.877H127M29.7879 53.0716C29.7079 52.2604 29.4999 51.5288 29.1639 50.8767C28.8279 50.2246 28.3639 49.7078 27.7719 49.326C27.1799 48.9284 26.4439 48.7376 25.5639 48.7535C24.6679 48.7535 23.9559 49 23.4279 49.493C22.8999 49.9861 22.6359 50.5825 22.6359 51.2823C22.6359 51.9026 22.8119 52.4274 23.1639 52.8569C23.5159 53.2704 23.9879 53.6441 24.5799 53.9781C25.1879 54.3121 25.8679 54.6461 26.6199 54.9801C27.2279 55.2346 27.8439 55.5209 28.4679 55.839C29.0919 56.1571 29.6599 56.5229 30.1719 56.9364C30.6839 57.334 31.0919 57.8191 31.3959 58.3916C31.6999 58.9483 31.8519 59.6083 31.8519 60.3718C31.8519 61.2624 31.6199 62.0576 31.1559 62.7575C30.6919 63.4573 30.0279 64.006 29.1639 64.4036C28.3159 64.8012 27.2839 65 26.0679 65C25.3799 65 24.6519 64.8966 23.8839 64.6899C23.1319 64.4831 22.4439 64.1889 21.8199 63.8072L21.9399 64.8091H20.4759L20.3799 59.5606H21.5319C21.6599 60.9443 22.1559 61.994 23.0199 62.7097C23.8999 63.4095 24.9479 63.7594 26.1639 63.7594C26.7719 63.7594 27.3239 63.6481 27.8199 63.4254C28.3159 63.2028 28.7079 62.8847 28.9959 62.4712C29.2839 62.0576 29.4279 61.5726 29.4279 61.0159C29.4279 60.3638 29.2279 59.8151 28.8279 59.3698C28.4439 58.9244 27.9479 58.5427 27.3399 58.2246C26.7479 57.9066 26.1239 57.6044 25.4679 57.3181C24.8119 57.0318 24.1719 56.7296 23.5479 56.4115C22.9399 56.0934 22.3879 55.7276 21.8919 55.3141C21.3959 54.9006 21.0039 54.4155 20.7159 53.8588C20.4279 53.2863 20.2839 52.6183 20.2839 51.8549C20.2839 51.4095 20.3639 50.9404 20.5239 50.4473C20.6839 49.9543 20.9559 49.4851 21.3399 49.0398C21.7239 48.5944 22.2439 48.2366 22.8999 47.9662C23.5719 47.6799 24.4119 47.5368 25.4199 47.5368C26.0279 47.5368 26.7079 47.6242 27.4599 47.7992C28.2279 47.9741 28.9239 48.2843 29.5479 48.7296L29.4519 47.7276H30.8919V53.0716H29.7879ZM33.2006 64.6183V63.5447C33.6806 63.5447 34.0486 63.4175 34.3046 63.163C34.5606 62.9085 34.7766 62.5666 34.9526 62.1372C35.1286 61.6918 35.3206 61.1988 35.5286 60.658L40.3766 47.4652H41.3366L46.5926 60.8489C46.7206 61.1511 46.8646 61.5646 47.0246 62.0895C47.1846 62.5984 47.2566 63.0358 47.2406 63.4016C47.5126 63.3698 47.7766 63.3539 48.0326 63.3539C48.3046 63.338 48.5606 63.3221 48.8006 63.3062V64.6183H42.9686V63.5686C43.5286 63.5527 43.8966 63.4334 44.0726 63.2107C44.2646 62.9722 44.3366 62.6859 44.2886 62.3519C44.2566 62.0179 44.1766 61.6839 44.0486 61.3499L43.3286 59.4175L37.4486 59.5606L36.7526 61.6362C36.6566 61.9543 36.5526 62.2565 36.4406 62.5427C36.3286 62.829 36.2166 63.1073 36.1046 63.3777C36.3926 63.3459 36.6966 63.33 37.0166 63.33C37.3526 63.3141 37.6486 63.2982 37.9046 63.2823V64.6183H33.2006ZM37.8806 58.2724H42.9206L41.4086 54.2406C41.2166 53.7157 41.0326 53.1988 40.8566 52.6899C40.6806 52.165 40.5206 51.664 40.3766 51.1869H40.3526C40.2246 51.5845 40.0806 52.0219 39.9206 52.499C39.7606 52.9761 39.5766 53.493 39.3686 54.0497L37.8806 58.2724ZM62.0839 53.0716C62.0679 52.165 61.9639 51.4095 61.7719 50.8052C61.5799 50.2008 61.2599 49.7475 60.8119 49.4453C60.3799 49.1431 59.7799 49 59.0119 49.0159H57.2839L57.2599 61.4215C57.2599 61.8509 57.2519 62.2406 57.2359 62.5905C57.2359 62.9245 57.2199 63.1948 57.1879 63.4016C57.4919 63.3698 57.8199 63.3539 58.1719 63.3539C58.5399 63.338 58.8679 63.3221 59.1559 63.3062V64.6183H53.0599V63.5686C53.5879 63.5368 53.9639 63.4254 54.1879 63.2346C54.4119 63.0437 54.5559 62.7574 54.6199 62.3757C54.6839 61.9781 54.7159 61.493 54.7159 60.9205V49.0398L52.6999 49.0636C51.7239 49.0636 51.0119 49.3897 50.5639 50.0417C50.1159 50.6938 49.8919 51.7038 49.8919 53.0716H48.7639L48.9079 47.9185H63.0679L63.2119 53.0716H62.0839ZM73.6897 65C72.1697 65 70.8657 64.7455 69.7777 64.2366C68.7057 63.7276 67.8337 63.0517 67.1617 62.2087C66.4897 61.3499 65.9937 60.4036 65.6737 59.3698C65.3537 58.336 65.1937 57.3022 65.1937 56.2684C65.1937 55.2664 65.3617 54.2565 65.6977 53.2386C66.0497 52.2048 66.5697 51.2584 67.2577 50.3996C67.9617 49.5407 68.8337 48.8489 69.8737 48.3241C70.9297 47.7992 72.1617 47.5368 73.5697 47.5368C75.0417 47.5368 76.3057 47.7992 77.3617 48.3241C78.4337 48.8489 79.3137 49.5487 80.0017 50.4235C80.6897 51.2823 81.2017 52.2207 81.5377 53.2386C81.8897 54.2565 82.0657 55.2664 82.0657 56.2684C82.0657 57.2545 81.8897 58.2644 81.5377 59.2982C81.2017 60.3161 80.6817 61.2624 79.9777 62.1372C79.2897 62.996 78.4257 63.6879 77.3857 64.2127C76.3457 64.7376 75.1137 65 73.6897 65ZM73.8097 63.7594C74.7377 63.7594 75.5377 63.5527 76.2097 63.1392C76.8977 62.7256 77.4577 62.1769 77.8897 61.493C78.3377 60.7932 78.6657 60.0298 78.8737 59.2028C79.0817 58.3598 79.1857 57.5248 79.1857 56.6978C79.1857 55.6799 79.0657 54.7018 78.8257 53.7634C78.5857 52.8091 78.2177 51.9582 77.7217 51.2107C77.2417 50.4473 76.6417 49.8509 75.9217 49.4215C75.2017 48.9761 74.3697 48.7535 73.4257 48.7535C72.4977 48.7535 71.6897 48.9682 71.0017 49.3976C70.3137 49.827 69.7537 50.3916 69.3217 51.0914C68.8897 51.7753 68.5617 52.5388 68.3377 53.3817C68.1297 54.2087 68.0257 55.0437 68.0257 55.8867C68.0257 56.7137 68.1377 57.5885 68.3617 58.5109C68.5857 59.4334 68.9297 60.2922 69.3937 61.0875C69.8577 61.8827 70.4497 62.5268 71.1697 63.0199C71.9057 63.5129 72.7857 63.7594 73.8097 63.7594ZM84.5705 64.6183V63.5686C85.0985 63.5368 85.4745 63.4254 85.6985 63.2346C85.9385 63.0437 86.0905 62.7574 86.1545 62.3757C86.2185 61.994 86.2505 61.5089 86.2505 60.9205V50.996C86.2505 50.6461 86.2585 50.3121 86.2745 49.994C86.2905 49.66 86.3065 49.3738 86.3225 49.1352C86.0505 49.1511 85.7545 49.167 85.4345 49.1829C85.1145 49.1988 84.8265 49.2147 84.5705 49.2306V47.9185C85.5465 47.9026 86.5305 47.8946 87.5225 47.8946C88.5145 47.8787 89.5145 47.8787 90.5225 47.8946C92.0265 47.8946 93.2665 48.0696 94.2425 48.4195C95.2185 48.7535 95.9465 49.2545 96.4265 49.9225C96.9225 50.5905 97.1625 51.4334 97.1465 52.4513C97.1625 53.0875 97.0345 53.7237 96.7626 54.3598C96.4906 54.9801 96.0345 55.5368 95.3945 56.0298C94.7545 56.5229 93.8745 56.8966 92.7545 57.1511C93.0745 57.3419 93.3625 57.6044 93.6185 57.9384C93.8745 58.2724 94.1385 58.6461 94.4105 59.0596L95.8745 61.3022C96.1785 61.7793 96.4585 62.1849 96.7145 62.5189C96.9705 62.8529 97.2585 63.1153 97.5785 63.3062C97.8985 63.4811 98.2825 63.5686 98.7305 63.5686V64.6183H95.3945C94.9785 64.2684 94.6185 63.8946 94.3145 63.497C94.0265 63.0835 93.7145 62.6223 93.3785 62.1133L91.7225 59.4413C91.5145 59.1233 91.2905 58.7813 91.0505 58.4155C90.8265 58.0497 90.5785 57.7396 90.3065 57.4851C90.0505 57.4851 89.7945 57.4851 89.5385 57.4851C89.2985 57.4851 89.0505 57.4851 88.7945 57.4851V61.4215C88.7945 61.8509 88.7865 62.2406 88.7705 62.5905C88.7705 62.9245 88.7545 63.1948 88.7225 63.4016C88.9145 63.3857 89.1145 63.3777 89.3225 63.3777C89.5465 63.3618 89.7625 63.3459 89.9705 63.33C90.1945 63.3141 90.3865 63.3062 90.5465 63.3062V64.6183H84.5705ZM90.1865 56.3161C91.0665 56.3002 91.8185 56.165 92.4425 55.9105C93.0665 55.6402 93.5465 55.2346 93.8825 54.6938C94.2185 54.1372 94.3865 53.4215 94.3865 52.5467C94.3865 51.8946 94.2905 51.3459 94.0985 50.9006C93.9065 50.4553 93.6345 50.0974 93.2825 49.827C92.9305 49.5408 92.5065 49.3419 92.0105 49.2306C91.5305 49.1034 91.0105 49.0398 90.4505 49.0398C89.9385 49.0398 89.5625 49.1352 89.3225 49.326C89.0985 49.5169 88.9545 49.7952 88.8905 50.161C88.8265 50.5268 88.7945 50.996 88.7945 51.5686V56.2445C89.0345 56.2604 89.2585 56.2843 89.4665 56.3161C89.6905 56.332 89.9305 56.332 90.1865 56.3161ZM106.494 48.9682C105.982 48.9841 105.606 49.0954 105.366 49.3022C105.126 49.493 104.974 49.7793 104.91 50.161C104.846 50.5268 104.814 51.0119 104.814 51.6163V61.4215C104.814 61.8509 104.806 62.2406 104.79 62.5905C104.79 62.9245 104.774 63.1948 104.742 63.4016C105.014 63.3698 105.31 63.3539 105.63 63.3539C105.966 63.338 106.254 63.3221 106.494 63.3062V64.6183H100.59V63.5686C101.118 63.5368 101.494 63.4254 101.718 63.2346C101.958 63.0437 102.11 62.7574 102.174 62.3757C102.238 61.994 102.27 61.5089 102.27 60.9205V50.996C102.27 50.6461 102.278 50.3121 102.294 49.994C102.31 49.66 102.326 49.3738 102.342 49.1352C102.07 49.1511 101.774 49.167 101.454 49.1829C101.134 49.1988 100.846 49.2147 100.59 49.2306V47.9185H106.494V48.9682ZM64.9867 5.36913C65.1308 5.28694 65.245 5.31263 65.3238 5.44361C65.4054 5.55918 65.3809 5.66448 65.2504 5.76208C64.5898 6.20383 63.9211 6.56339 63.2442 6.84077C62.5673 7.11815 61.8877 7.33132 61.2026 7.47771C60.5176 7.6241 59.8298 7.7217 59.1366 7.7705C58.4434 7.81929 57.7502 7.8347 57.0597 7.81929C56.9782 7.90148 56.6737 8.2482 56.1409 8.85946C55.6081 9.47072 54.9556 10.2386 54.1836 11.1632C53.4116 12.0853 52.5716 13.1074 51.669 14.2247C50.7665 15.3444 49.9048 16.4617 49.0838 17.5814C48.2628 18.7012 47.537 19.7542 46.909 20.7405C46.2811 21.7293 45.8488 22.5537 45.6151 23.2137C45.3813 23.8764 45.4057 24.313 45.6885 24.5236C45.9712 24.7367 46.6182 24.6212 47.6349 24.1794C48.2791 23.902 48.9642 23.5425 49.69 23.1007C50.4158 22.659 51.1389 22.1915 51.8648 21.6933C52.5906 21.195 53.2974 20.6814 53.9906 20.1497C54.6838 19.6181 55.3145 19.1198 55.8881 18.655C56.459 18.1901 56.9591 17.7741 57.3859 17.4068C57.8127 17.0395 58.1308 16.7673 58.3401 16.5849C58.4679 16.4873 58.5821 16.495 58.6772 16.6106C58.7751 16.7262 58.7669 16.8392 58.6527 16.9548C58.5875 17.019 58.3863 17.1988 58.0492 17.4941C57.7094 17.7869 57.2826 18.1516 56.7689 18.5831C56.2524 19.0171 55.6652 19.4948 55.0046 20.0162C54.344 20.5401 53.6508 21.0615 52.9277 21.5829C52.2019 22.1068 51.4624 22.6076 50.704 23.0905C49.9455 23.5733 49.217 23.9894 48.5156 24.3387C47.8143 24.6905 47.1591 24.9473 46.5448 25.1091C45.9331 25.2709 45.4003 25.3043 44.949 25.2067C44.37 25.0603 44.0465 24.7213 43.9813 24.1897C43.916 23.658 44.0384 22.998 44.3428 22.2044C44.65 21.4133 45.1013 20.5299 45.6966 19.559C46.292 18.5882 46.9525 17.5943 47.6784 16.5824C48.4042 15.5704 49.1572 14.5739 49.9374 13.5929C50.7176 12.6118 51.4516 11.718 52.1366 10.9115C52.8217 10.1025 53.417 9.41678 53.9254 8.85432C54.4337 8.29186 54.7762 7.91175 54.9529 7.71399C54.1945 7.6652 53.4306 7.61126 52.6558 7.55476C51.8838 7.49826 51.1281 7.47257 50.3968 7.48028C49.6628 7.48798 48.9506 7.55733 48.2574 7.68831C47.5642 7.81929 46.9199 8.04017 46.3246 8.35093C46.1968 8.41771 46.0908 8.37662 46.0092 8.22765C45.944 8.09667 45.9848 7.99137 46.1288 7.90918C46.7731 7.56503 47.4663 7.33388 48.2085 7.21061C48.9479 7.08733 49.7199 7.01798 50.5164 7.00257C51.3129 6.98716 52.1203 7.01541 52.9331 7.08733C53.7459 7.16181 54.556 7.22088 55.3607 7.27224C55.763 6.8305 56.0865 6.4735 56.3285 6.19355C56.5704 5.91618 56.7661 5.6953 56.9211 5.53093C57.0733 5.36913 57.212 5.25355 57.3316 5.18678C57.4512 5.12257 57.6061 5.08405 57.791 5.07634C57.9759 5.06864 58.2042 5.0712 58.4788 5.08918C58.7533 5.10459 59.123 5.11487 59.5906 5.11487L57.4648 7.34416C58.1091 7.34416 58.7506 7.31591 59.3867 7.2594C60.0228 7.2029 60.659 7.10017 61.2951 6.95377C61.9312 6.80738 62.5564 6.60705 63.1681 6.35279C63.7797 6.1011 64.3832 5.76978 64.9813 5.36142L64.9867 5.36913ZM64.7215 1.20356C64.7541 1.04176 64.8411 0.974983 64.9879 1.00837C65.1483 1.00837 65.2135 1.09056 65.1809 1.25236C65.1156 1.80711 65.2135 2.29252 65.4718 2.71116C65.73 3.12723 66.0671 3.48679 66.4857 3.78985C66.9044 4.09291 67.3747 4.34974 67.8993 4.56034C68.4213 4.77351 68.9187 4.94302 69.3863 5.074C70.7401 4.11089 71.9634 3.44826 73.059 3.0887C74.1545 2.72914 75.1059 2.57761 75.9106 2.63668C76.7153 2.69318 77.3758 2.91406 77.8923 3.2993C78.4089 3.68455 78.7568 4.14427 78.9444 4.68362C79.1292 5.22296 79.151 5.7957 79.0042 6.39925C78.8601 7.0028 78.5285 7.54215 78.0147 8.01728C77.5308 8.45903 77.0469 8.77237 76.5658 8.95985C76.0819 9.14734 75.6197 9.24237 75.1766 9.24237C74.7335 9.24237 74.3393 9.15248 73.9914 8.97269C73.6434 8.79291 73.3743 8.56433 73.1813 8.28696C72.9883 8.00958 72.8904 7.69111 72.8904 7.33155C72.8904 6.97198 73.0182 6.60471 73.2764 6.22974L70.6667 5.86247C69.6989 6.5816 68.7257 7.41116 67.7417 8.3486C66.7576 9.2886 65.7708 10.3082 64.7813 11.41C63.7917 12.5118 62.7995 13.6804 61.81 14.9132C60.8178 16.146 59.8391 17.425 58.8741 18.7477C59.0508 18.6013 59.3117 18.3881 59.6597 18.1107C60.0049 17.8334 60.3964 17.5483 60.8314 17.2529C61.2663 16.9576 61.7203 16.6776 62.196 16.4079C62.6718 16.1383 63.123 15.9354 63.5498 15.7967C63.9766 15.658 64.3599 15.6092 64.697 15.6503C65.0341 15.6914 65.2923 15.8737 65.469 16.2025C65.6131 16.4799 65.6186 16.8266 65.4799 17.2426C65.344 17.6587 65.1265 18.1133 64.8275 18.6013C64.5285 19.0918 64.1914 19.5926 63.8135 20.1089C63.4356 20.6225 63.0768 21.1182 62.737 21.5908C62.3972 22.0659 62.1199 22.4923 61.9024 22.8775C61.685 23.2628 61.5925 23.5633 61.6252 23.7841C61.6578 24.005 61.8453 24.1283 62.1933 24.1514C62.5385 24.1771 63.1149 24.0564 63.9222 23.797C64.9688 23.4528 66.1106 23.0008 67.342 22.4383C68.5735 21.8759 69.7859 21.2595 70.9793 20.5891C72.17 19.9188 73.2819 19.2331 74.3149 18.5319C75.3452 17.8308 76.1824 17.1836 76.8294 16.5954C76.9409 16.4978 77.0551 16.5055 77.1665 16.6211C77.2644 16.7367 77.2535 16.8497 77.1421 16.9653C76.563 17.4892 75.9024 18.0183 75.1603 18.5576C74.4182 19.097 73.6325 19.6158 72.8034 20.114C71.9743 20.6123 71.1234 21.0951 70.2535 21.56C69.3836 22.0248 68.53 22.446 67.6927 22.821C67.4182 22.9366 67.0729 23.083 66.6543 23.2628C66.2356 23.4425 65.7844 23.6223 65.3005 23.8021C64.8166 23.9819 64.3164 24.1463 63.8026 24.2927C63.2861 24.439 62.7995 24.5546 62.3401 24.6368C61.8807 24.719 61.4729 24.7421 61.1195 24.7113C60.7661 24.6779 60.5079 24.5649 60.3475 24.3671C60.1708 24.154 60.1246 23.8483 60.2143 23.4477C60.3013 23.047 60.4671 22.5976 60.709 22.0993C60.951 21.6011 61.2418 21.0797 61.5789 20.5326C61.916 19.9856 62.2395 19.4642 62.5467 18.966C62.8512 18.4677 63.1149 18.0183 63.3323 17.6176C63.5498 17.217 63.6613 16.9165 63.6694 16.711C63.6776 16.5081 63.5525 16.4208 63.2943 16.4542C63.036 16.4876 62.5848 16.6905 61.9405 17.0654C61.4566 17.3428 60.9727 17.6587 60.4916 18.008C60.0077 18.3599 59.5537 18.7194 59.1269 19.0867C58.7001 19.454 58.3141 19.8135 57.9661 20.1654C57.6209 20.5172 57.349 20.8306 57.156 21.1079C57.0119 21.1079 56.8108 21.1157 56.5525 21.1336C56.2943 21.149 56.0578 21.149 55.8403 21.1336C55.6228 21.1182 55.4543 21.0797 55.3319 21.0232C55.2123 20.9667 55.2069 20.864 55.3211 20.7176C55.8376 19.9676 56.3486 19.2511 56.857 18.573C57.3653 17.895 57.8601 17.2375 58.344 16.6006C60.0022 14.4278 61.549 12.5632 62.9844 11.0042C64.417 9.44526 65.7463 8.12515 66.9723 7.04903C67.3094 6.73827 67.6411 6.44805 67.9646 6.17837C68.2853 5.9087 68.6007 5.65958 68.9079 5.431C68.3914 5.2846 67.8721 5.09198 67.3502 4.8557C66.8255 4.61941 66.358 4.32919 65.9475 3.98504C65.537 3.64089 65.2135 3.2428 64.9797 2.78564C64.7459 2.32848 64.6616 1.80455 64.7269 1.21897L64.7215 1.20356ZM73.6869 5.75974C74.0077 5.49777 74.3285 5.33083 74.6411 5.25635C74.9564 5.18187 75.2283 5.1716 75.4621 5.2204C75.6958 5.26919 75.8698 5.35908 75.9813 5.49007C76.0927 5.62105 76.1009 5.7469 76.0057 5.87018C75.9079 5.99346 75.6904 6.09362 75.3533 6.17581C75.0162 6.25799 74.516 6.28111 73.8555 6.25029C73.4368 6.67406 73.2791 7.10297 73.3852 7.53701C73.4912 7.97105 73.7549 8.2998 74.1817 8.52838C74.6085 8.75696 75.144 8.8263 75.7883 8.73641C76.4325 8.64652 77.0687 8.29209 77.6966 7.67056C78.1153 7.2622 78.398 6.81788 78.5421 6.33504C78.6861 5.85477 78.6943 5.40531 78.5665 4.98668C78.436 4.57061 78.1751 4.21876 77.7809 3.93367C77.3867 3.64859 76.8784 3.49192 76.2586 3.46881C75.6388 3.44313 74.9021 3.58438 74.0485 3.88488C73.1949 4.18794 72.2434 4.71444 71.1968 5.46439L73.6869 5.75717V5.75974ZM87.3147 16.5895C87.3473 16.5561 87.3962 16.5407 87.4587 16.5407C87.6191 16.5407 87.7007 16.6229 87.7007 16.7847C87.7007 16.8489 87.6762 16.908 87.6273 16.9568C87.611 16.9722 87.3935 17.1571 86.9749 17.509C86.5562 17.8608 86.0071 18.2974 85.3302 18.8188C84.6533 19.3427 83.8894 19.9078 83.0358 20.5216C82.1822 21.1328 81.3151 21.7004 80.437 22.2244C79.5589 22.7483 78.7053 23.1798 77.8762 23.5239C77.0471 23.8681 76.3185 24.0376 75.6879 24.0376C75.1251 24.0376 74.682 23.8707 74.3585 23.5342C74.035 23.2003 73.8747 22.738 73.8747 22.1499C73.8747 21.7415 73.9562 21.2972 74.1166 20.8144C74.277 20.3341 74.4945 19.8435 74.769 19.3453C75.0436 18.847 75.3562 18.3616 75.7123 17.8891C76.0657 17.4165 76.4382 16.9825 76.8242 16.5895C77.3081 16.099 77.7947 15.6983 78.2867 15.3901C78.7787 15.0793 79.2083 14.9252 79.5807 14.9252C79.8063 14.9252 79.9721 14.9894 80.0754 15.1204C80.1787 15.2514 80.2331 15.4132 80.2331 15.611C80.2331 16.0193 80.0646 16.42 79.7248 16.8104C79.3877 17.2033 79.0125 17.5578 78.602 17.8762C78.1916 18.1947 77.8001 18.4721 77.4304 18.7084C77.0607 18.9446 76.8432 19.1116 76.778 19.2117C76.2615 19.9797 75.8754 20.65 75.6172 21.2202C75.3589 21.7929 75.2312 22.2655 75.2312 22.6404C75.2312 23.2132 75.522 23.4982 76.1011 23.4982C76.536 23.4982 77.0906 23.3467 77.7675 23.0462C78.4444 22.7432 79.1702 22.3656 79.9422 21.9059C80.7143 21.4487 81.4999 20.9376 82.2991 20.3752C83.0984 19.8127 83.8378 19.276 84.5228 18.77C85.2079 18.264 85.8005 17.812 86.298 17.4114C86.7982 17.0107 87.1353 16.7385 87.312 16.5895H87.3147ZM77.3353 18.1562C77.6886 17.943 78.0149 17.7144 78.3139 17.4704C78.6129 17.2264 78.8657 16.9979 79.0751 16.7847C79.2844 16.5715 79.4448 16.384 79.5589 16.2222C79.6704 16.0604 79.7275 15.9449 79.7275 15.8781C79.7275 15.8447 79.7112 15.8293 79.6786 15.8293C79.6296 15.8293 79.529 15.8704 79.3768 15.9526C79.2246 16.0347 79.0397 16.1683 78.8222 16.3558C78.6048 16.5433 78.3655 16.7847 78.11 17.0775C77.8518 17.3703 77.5935 17.7298 77.3353 18.1562Z" stroke="#60604C" stroke-miterlimit="10"/>
</svg>
