<svg width="14" height="14" viewBox="0 0 14 14" fill="none" xmlns="http://www.w3.org/2000/svg">
<path d="M10.4993 7.58268H7.58268V10.4993C7.58268 10.6541 7.52122 10.8024 7.41183 10.9118C7.30243 11.0212 7.15406 11.0827 6.99935 11.0827C6.84464 11.0827 6.69627 11.0212 6.58687 10.9118C6.47747 10.8024 6.41602 10.6541 6.41602 10.4993V7.58268H3.49935C3.34464 7.58268 3.19627 7.52122 3.08687 7.41183C2.97747 7.30243 2.91602 7.15406 2.91602 6.99935C2.91602 6.84464 2.97747 6.69627 3.08687 6.58687C3.19627 6.47747 3.34464 6.41602 3.49935 6.41602H6.41602V3.49935C6.41602 3.34464 6.47747 3.19627 6.58687 3.08687C6.69627 2.97747 6.84464 2.91602 6.99935 2.91602C7.15406 2.91602 7.30243 2.97747 7.41183 3.08687C7.52122 3.19627 7.58268 3.34464 7.58268 3.49935V6.41602H10.4993C10.6541 6.41602 10.8024 6.47747 10.9118 6.58687C11.0212 6.69627 11.0827 6.84464 11.0827 6.99935C11.0827 7.15406 11.0212 7.30243 10.9118 7.41183C10.8024 7.52122 10.6541 7.58268 10.4993 7.58268Z" fill="#2C2B2B"/>
</svg>
