<svg width="38" height="39" viewBox="0 0 38 39" fill="none" xmlns="http://www.w3.org/2000/svg">
<path d="M16.2292 9.20833V29.7917C16.2292 30.5265 15.9372 31.2313 15.4176 31.7509C14.898 32.2706 14.1932 32.5625 13.4583 32.5625H8.70833C7.97346 32.5625 7.26869 32.2706 6.74906 31.7509C6.22943 31.2313 5.9375 30.5265 5.9375 29.7917V9.20833C5.94166 8.47474 6.23492 7.77238 6.75365 7.25365C7.27238 6.73492 7.97474 6.44166 8.70833 6.4375H13.4583C14.1932 6.4375 14.898 6.72943 15.4176 7.24906C15.9372 7.76869 16.2292 8.47346 16.2292 9.20833ZM32.0625 9.20833V29.7917C32.0625 30.5265 31.7706 31.2313 31.2509 31.7509C30.7313 32.2706 30.0265 32.5625 29.2917 32.5625H24.5417C23.8068 32.5625 23.102 32.2706 22.5824 31.7509C22.0628 31.2313 21.7708 30.5265 21.7708 29.7917V9.20833C21.775 8.47474 22.0683 7.77238 22.587 7.25365C23.1057 6.73492 23.8081 6.44166 24.5417 6.4375H29.2917C30.0265 6.4375 30.7313 6.72943 31.2509 7.24906C31.7706 7.76869 32.0625 8.47346 32.0625 9.20833Z" fill="#F5F5F5"/>
</svg>
