<svg width="24" height="24" viewBox="0 0 24 24" fill="none" xmlns="http://www.w3.org/2000/svg">
<path d="M20.9333 11.4378V6.9498C20.9333 6.63247 20.8222 6.36047 20.6 6.1338C20.3778 5.90714 20.1111 5.7938 19.8 5.7938H17.9333C17.0889 5.7938 16.3778 5.5218 15.8 4.9778C15.2667 4.52447 14.6778 4.17314 14.0333 3.9238C13.3889 3.67447 12.7111 3.5498 12 3.5498C11.2889 3.5498 10.6111 3.67447 9.96667 3.9238C9.32222 4.17314 8.73333 4.52447 8.2 4.9778C7.62222 5.5218 6.91111 5.7938 6.06667 5.7938H4.2C3.88889 5.7938 3.62222 5.90714 3.4 6.1338C3.17778 6.36047 3.06667 6.63247 3.06667 6.9498V11.4378C2.75556 11.6645 2.5 11.9705 2.3 12.3558C2.1 12.7411 2 13.1605 2 13.6138V19.8018C2 19.9831 2.06667 20.1531 2.2 20.3118C2.33333 20.4705 2.48889 20.5498 2.66667 20.5498H3.33333C3.55556 20.5498 3.73333 20.4705 3.86667 20.3118C4 20.1531 4.06667 19.9831 4.06667 19.8018V19.2578C4.06667 19.0765 4.12222 18.9291 4.23333 18.8158C4.34444 18.7025 4.46667 18.6458 4.6 18.6458H19.4C19.5333 18.6458 19.6556 18.7025 19.7667 18.8158C19.8778 18.9291 19.9333 19.0765 19.9333 19.2578V19.8018C19.9333 19.9831 20 20.1531 20.1333 20.3118C20.2667 20.4705 20.4444 20.5498 20.6667 20.5498H21.3333C21.5111 20.5498 21.6667 20.4705 21.8 20.3118C21.9333 20.1531 22 19.9831 22 19.8018V13.6138C22 13.1605 21.9 12.7411 21.7 12.3558C21.5 11.9705 21.2444 11.6645 20.9333 11.4378ZM3.66667 6.9498C3.66667 6.8138 3.72222 6.68914 3.83333 6.5758C3.94444 6.46247 4.06667 6.4058 4.2 6.4058H6.06667C7.04444 6.4058 7.88889 6.08847 8.6 5.4538C9.57778 4.59247 10.7111 4.1618 12 4.1618C13.2889 4.1618 14.4222 4.59247 15.4 5.4538C16.1111 6.08847 16.9556 6.4058 17.9333 6.4058H19.8C19.9333 6.4058 20.0556 6.46247 20.1667 6.5758C20.2778 6.68914 20.3333 6.8138 20.3333 6.9498V11.0978C20.0222 11.0071 19.7111 10.9618 19.4 10.9618H18.4V8.6498C18.4 8.42314 18.3222 8.23047 18.1667 8.0718C18.0111 7.91314 17.8222 7.8338 17.6 7.8338H14.0667C13.8444 7.8338 13.6556 7.91314 13.5 8.0718C13.3444 8.23047 13.2667 8.42314 13.2667 8.6498V8.9898C13.2667 9.08047 13.2889 9.14847 13.3333 9.1938C13.3778 9.23914 13.4444 9.2618 13.5333 9.2618C13.6222 9.2618 13.6889 9.23914 13.7333 9.1938C13.7778 9.14847 13.8 9.08047 13.8 8.9898V8.6498C13.8 8.55914 13.8222 8.49114 13.8667 8.4458C13.9111 8.40047 13.9778 8.3778 14.0667 8.3778H17.6C17.6444 8.3778 17.6889 8.40047 17.7333 8.4458C17.7778 8.49114 17.8 8.55914 17.8 8.6498V10.9618H13.8V10.3498C13.8 10.2591 13.7778 10.1911 13.7333 10.1458C13.6889 10.1005 13.6222 10.0778 13.5333 10.0778C13.4444 10.0778 13.3778 10.1005 13.3333 10.1458C13.2889 10.1911 13.2667 10.2591 13.2667 10.3498V10.9618H10.7333V8.6498C10.7333 8.42314 10.6556 8.23047 10.5 8.0718C10.3444 7.91314 10.1556 7.8338 9.93333 7.8338H6.4C6.17778 7.8338 5.98889 7.91314 5.83333 8.0718C5.67778 8.23047 5.6 8.42314 5.6 8.6498V10.9618H4.6C4.28889 10.9618 3.97778 11.0071 3.66667 11.0978V6.9498ZM6.2 10.9618V8.6498C6.2 8.55914 6.22222 8.49114 6.26667 8.4458C6.31111 8.40047 6.35556 8.3778 6.4 8.3778H9.93333C10.0222 8.3778 10.0889 8.40047 10.1333 8.4458C10.1778 8.49114 10.2 8.55914 10.2 8.6498V10.9618H6.2ZM21.3333 19.9378H20.6667C20.5778 19.9378 20.5333 19.8925 20.5333 19.8018V19.2578C20.5333 18.9405 20.4222 18.6685 20.2 18.4418C19.9778 18.2151 19.7111 18.1018 19.4 18.1018H4.6C4.28889 18.1018 4.02222 18.2151 3.8 18.4418C3.57778 18.6685 3.46667 18.9405 3.46667 19.2578V19.8018C3.46667 19.8925 3.42222 19.9378 3.33333 19.9378H2.66667C2.62222 19.9378 2.6 19.8925 2.6 19.8018V16.1298H3.46667C3.55556 16.1298 3.63333 16.0958 3.7 16.0278C3.76667 15.9598 3.8 15.8805 3.8 15.7898C3.8 15.6991 3.76667 15.6311 3.7 15.5858C3.63333 15.5405 3.55556 15.5178 3.46667 15.5178H2.6V13.6138C2.6 13.0245 2.8 12.5258 3.2 12.1178C3.6 11.7098 4.06667 11.5058 4.6 11.5058H19.4C19.9333 11.5058 20.4 11.7098 20.8 12.1178C21.2 12.5258 21.4 13.0245 21.4 13.6138V15.5178H4.86667C4.77778 15.5178 4.7 15.5405 4.63333 15.5858C4.56667 15.6311 4.53333 15.6991 4.53333 15.7898C4.53333 15.8805 4.56667 15.9598 4.63333 16.0278C4.7 16.0958 4.77778 16.1298 4.86667 16.1298H21.4V19.8018C21.4 19.8925 21.3778 19.9378 21.3333 19.9378Z" fill="#727272"/>
</svg>
