<svg width="38" height="39" viewBox="0 0 38 39" fill="none" xmlns="http://www.w3.org/2000/svg">
<path d="M10 5.10096L10 33.9018C10.001 34.1934 10.0849 34.4792 10.2427 34.7285C10.4006 34.9778 10.6264 35.1811 10.8959 35.3165C11.1653 35.452 11.4682 35.5144 11.772 35.4972C12.0757 35.4799 12.3688 35.3836 12.6197 35.2186L34.325 20.8182C35.225 20.2214 35.225 18.7846 34.325 18.1861L12.6197 3.78573C12.3693 3.61904 12.0761 3.52129 11.7718 3.5031C11.4676 3.48491 11.164 3.54697 10.8939 3.68254C10.6239 3.81812 10.3978 4.02201 10.2402 4.27208C10.0826 4.52215 9.99953 4.80883 10 5.10096Z" fill="#F5F5F5"/>
</svg>
