<svg width="41" height="16" viewBox="0 0 41 16" fill="none" xmlns="http://www.w3.org/2000/svg">
<path d="M19.1615 7.78467V12.4385H17.6846V0.946289H21.5999C22.5922 0.946289 23.4383 1.27706 24.1306 1.93859C24.8383 2.60012 25.1922 3.4078 25.1922 4.36163C25.1922 5.33855 24.8383 6.14623 24.1306 6.80006C23.446 7.4539 22.5999 7.77698 21.5999 7.77698H19.1615V7.78467ZM19.1615 2.36166V6.3693H21.6307C22.2153 6.3693 22.7076 6.1693 23.0922 5.777C23.4845 5.3847 23.6845 4.90778 23.6845 4.36932C23.6845 3.83856 23.4845 3.36934 23.0922 2.97704C22.7076 2.56935 22.223 2.36935 21.6307 2.36935H19.1615V2.36166Z" fill="black"/>
<path d="M29.0535 4.31592C30.1458 4.31592 31.0074 4.60822 31.6381 5.19283C32.2689 5.77744 32.5843 6.57743 32.5843 7.5928V12.4389H31.1766V11.3466H31.115C30.5074 12.2466 29.692 12.6927 28.6766 12.6927C27.8074 12.6927 27.0843 12.4389 26.4997 11.9235C25.9151 11.4081 25.6228 10.7697 25.6228 10.0005C25.6228 9.18509 25.9305 8.53894 26.5459 8.06202C27.1612 7.57742 27.9843 7.33896 29.0074 7.33896C29.8843 7.33896 30.6074 7.5005 31.1689 7.82357V7.48511C31.1689 6.96973 30.9689 6.53897 30.5612 6.17743C30.1535 5.8159 29.6766 5.63898 29.1305 5.63898C28.3074 5.63898 27.6535 5.98513 27.1766 6.68512L25.8766 5.86974C26.592 4.83129 27.6535 4.31592 29.0535 4.31592ZM27.1459 10.0235C27.1459 10.4082 27.3074 10.7312 27.6382 10.9851C27.9612 11.2389 28.3458 11.3697 28.7843 11.3697C29.4074 11.3697 29.9612 11.1389 30.4458 10.6774C30.9304 10.2158 31.1766 9.67739 31.1766 9.05432C30.715 8.69279 30.0766 8.50817 29.2535 8.50817C28.6535 8.50817 28.1535 8.65433 27.7535 8.93894C27.3459 9.23894 27.1459 9.60047 27.1459 10.0235Z" fill="black"/>
<path d="M40.615 4.56934L35.692 15.8923H34.1689L35.9997 11.9308L32.7535 4.56934H34.3612L36.6996 10.2154H36.7304L39.0073 4.56934H40.615Z" fill="black"/>
<path d="M13.2873 6.84582C13.2873 6.36428 13.2442 5.90352 13.1642 5.46045H6.97351V7.99888L10.5389 7.99965C10.3942 8.84425 9.92886 9.56424 9.21579 10.0442V11.6911H11.3381C12.5773 10.5442 13.2873 8.84887 13.2873 6.84582Z" fill="#4285F4"/>
<path d="M9.21673 10.0445C8.62597 10.4429 7.86521 10.676 6.97522 10.676C5.25601 10.676 3.79756 9.51757 3.27526 7.95605H1.08606V9.6545C2.17066 11.8068 4.39987 13.2837 6.97522 13.2837C8.7552 13.2837 10.2506 12.6983 11.339 11.6906L9.21673 10.0445Z" fill="#34A853"/>
<path d="M3.06882 6.6965C3.06882 6.25804 3.1419 5.8342 3.27497 5.43575V3.7373H1.08577C0.637313 4.62729 0.38501 5.6319 0.38501 6.6965C0.38501 7.7611 0.638082 8.7657 1.08577 9.65569L3.27497 7.95725C3.1419 7.5588 3.06882 7.13496 3.06882 6.6965Z" fill="#FABB05"/>
<path d="M6.97522 2.71557C7.94674 2.71557 8.81673 3.05018 9.50365 3.70402L11.3844 1.82481C10.2421 0.76098 8.75289 0.10791 6.97522 0.10791C4.40063 0.10791 2.17066 1.58481 1.08606 3.7371L3.27526 5.43554C3.79756 3.87402 5.25601 2.71557 6.97522 2.71557Z" fill="#E94235"/>
</svg>
