<svg width="25" height="16" viewBox="0 0 25 16" fill="none" xmlns="http://www.w3.org/2000/svg">
<path d="M24 1.45455V16H2.4375V13.0909H1V0H21.125V1.45455H24ZM18.25 1.45455C18.25 1.65909 18.2874 1.84848 18.3623 2.02273C18.4372 2.19697 18.5382 2.34848 18.6655 2.47727C18.7928 2.60606 18.9463 2.71212 19.126 2.79545C19.3057 2.87879 19.4928 2.91667 19.6875 2.90909V1.45455H18.25ZM2.4375 2.90909C2.63965 2.90909 2.82682 2.87121 2.99902 2.79545C3.17122 2.7197 3.32096 2.61742 3.44824 2.48864C3.57552 2.35985 3.68034 2.20455 3.7627 2.02273C3.84505 1.84091 3.88249 1.65152 3.875 1.45455H2.4375V2.90909ZM2.4375 8.72727C2.83431 8.72727 3.20492 8.80303 3.54932 8.95455C3.89372 9.10606 4.20068 9.31439 4.47021 9.57955C4.73975 9.8447 4.94564 10.1515 5.08789 10.5C5.23014 10.8485 5.30501 11.2273 5.3125 11.6364H16.8125C16.8125 11.2348 16.8874 10.8598 17.0371 10.5114C17.1868 10.1629 17.3927 9.85227 17.6548 9.57955C17.9168 9.30682 18.2201 9.09848 18.5645 8.95455C18.9089 8.81061 19.2832 8.73485 19.6875 8.72727V4.36364C19.2907 4.36364 18.9201 4.28788 18.5757 4.13636C18.2313 3.98485 17.9243 3.77652 17.6548 3.51136C17.3853 3.24621 17.1794 2.93939 17.0371 2.59091C16.8949 2.24242 16.82 1.86364 16.8125 1.45455H5.3125C5.3125 1.85606 5.23763 2.23106 5.08789 2.57955C4.93815 2.92803 4.73226 3.23864 4.47021 3.51136C4.20817 3.78409 3.90495 3.99242 3.56055 4.13636C3.21615 4.2803 2.8418 4.35606 2.4375 4.36364V8.72727ZM19.6875 10.1818C19.4854 10.1818 19.2982 10.2197 19.126 10.2955C18.9538 10.3712 18.804 10.4735 18.6768 10.6023C18.5495 10.7311 18.4447 10.8864 18.3623 11.0682C18.2799 11.25 18.2425 11.4394 18.25 11.6364H19.6875V10.1818ZM2.4375 11.6364H3.875C3.875 11.4318 3.83756 11.2424 3.7627 11.0682C3.68783 10.8939 3.58675 10.7424 3.45947 10.6136C3.33219 10.4848 3.17871 10.3788 2.99902 10.2955C2.81934 10.2121 2.63216 10.1742 2.4375 10.1818V11.6364ZM22.5625 2.90909H21.125V13.0909H3.875V14.5455H22.5625V2.90909ZM6.03125 7.27273C5.83659 7.27273 5.66813 7.20076 5.52588 7.05682C5.38363 6.91288 5.3125 6.74242 5.3125 6.54545C5.3125 6.34848 5.38363 6.17803 5.52588 6.03409C5.66813 5.89015 5.83659 5.81818 6.03125 5.81818C6.22591 5.81818 6.39437 5.89015 6.53662 6.03409C6.67887 6.17803 6.75 6.34848 6.75 6.54545C6.75 6.74242 6.67887 6.91288 6.53662 7.05682C6.39437 7.20076 6.22591 7.27273 6.03125 7.27273ZM16.0938 7.27273C15.8991 7.27273 15.7306 7.20076 15.5884 7.05682C15.4461 6.91288 15.375 6.74242 15.375 6.54545C15.375 6.34848 15.4461 6.17803 15.5884 6.03409C15.7306 5.89015 15.8991 5.81818 16.0938 5.81818C16.2884 5.81818 16.4569 5.89015 16.5991 6.03409C16.7414 6.17803 16.8125 6.34848 16.8125 6.54545C16.8125 6.74242 16.7414 6.91288 16.5991 7.05682C16.4569 7.20076 16.2884 7.27273 16.0938 7.27273ZM11.0625 10.1818C10.6657 10.1818 10.2951 10.1061 9.95068 9.95455C9.60628 9.80303 9.29932 9.5947 9.02979 9.32955C8.76025 9.06439 8.55436 8.75758 8.41211 8.40909C8.26986 8.06061 8.19499 7.68182 8.1875 7.27273V5.81818C8.1875 5.41667 8.26237 5.04167 8.41211 4.69318C8.56185 4.3447 8.76774 4.03409 9.02979 3.76136C9.29183 3.48864 9.59505 3.2803 9.93945 3.13636C10.2839 2.99242 10.6582 2.91667 11.0625 2.90909C11.4593 2.90909 11.8299 2.98485 12.1743 3.13636C12.5187 3.28788 12.8257 3.49621 13.0952 3.76136C13.3647 4.02652 13.5706 4.33333 13.7129 4.68182C13.8551 5.0303 13.93 5.40909 13.9375 5.81818V7.27273C13.9375 7.67424 13.8626 8.04924 13.7129 8.39773C13.5632 8.74621 13.3573 9.05682 13.0952 9.32955C12.8332 9.60227 12.5299 9.81061 12.1855 9.95455C11.8411 10.0985 11.4668 10.1742 11.0625 10.1818ZM9.625 7.27273C9.625 7.47727 9.66243 7.66667 9.7373 7.84091C9.81217 8.01515 9.91325 8.16667 10.0405 8.29545C10.1678 8.42424 10.3213 8.5303 10.501 8.61364C10.6807 8.69697 10.8678 8.73485 11.0625 8.72727C11.2646 8.72727 11.4518 8.68939 11.624 8.61364C11.7962 8.53788 11.946 8.43561 12.0732 8.30682C12.2005 8.17803 12.3053 8.02273 12.3877 7.84091C12.4701 7.65909 12.5075 7.4697 12.5 7.27273V5.81818C12.5 5.61364 12.4626 5.42424 12.3877 5.25C12.3128 5.07576 12.2118 4.92424 12.0845 4.79545C11.9572 4.66667 11.8037 4.56061 11.624 4.47727C11.4443 4.39394 11.2572 4.35606 11.0625 4.36364C10.8604 4.36364 10.6732 4.40152 10.501 4.47727C10.3288 4.55303 10.179 4.6553 10.0518 4.78409C9.92448 4.91288 9.81966 5.06818 9.7373 5.25C9.65495 5.43182 9.61751 5.62121 9.625 5.81818V7.27273Z" fill="#2C2B2B"/>
</svg>
