<svg width="25" height="16" viewBox="0 0 25 16" fill="none" xmlns="http://www.w3.org/2000/svg">
<g clip-path="url(#clip0_40000780_4996)">
<path d="M22.625 0C22.8828 0 23.125 0.0454545 23.3516 0.136364C23.5781 0.227273 23.7773 0.359848 23.9492 0.534091C24.1211 0.708333 24.2539 0.901515 24.3477 1.11364C24.4414 1.32576 24.4922 1.56061 24.5 1.81818V14.1818C24.5 14.4318 24.4531 14.6667 24.3594 14.8864C24.2656 15.1061 24.1289 15.2992 23.9492 15.4659C23.7695 15.6326 23.5703 15.7614 23.3516 15.8523C23.1328 15.9432 22.8906 15.9924 22.625 16H2.375C2.11719 16 1.875 15.9545 1.64844 15.8636C1.42188 15.7727 1.22266 15.6402 1.05078 15.4659C0.878906 15.2917 0.746094 15.0985 0.652344 14.8864C0.558594 14.6742 0.507812 14.4394 0.5 14.1818V1.81818C0.5 1.56818 0.546875 1.33333 0.640625 1.11364C0.734375 0.893939 0.871094 0.700758 1.05078 0.534091C1.23047 0.367424 1.42969 0.238636 1.64844 0.147727C1.86719 0.0568182 2.10938 0.00757576 2.375 0H22.625ZM2.375 1.45455C2.26562 1.45455 2.17578 1.48864 2.10547 1.55682C2.03516 1.625 2 1.71212 2 1.81818V4.36364H23V1.81818C23 1.71212 22.9648 1.625 22.8945 1.55682C22.8242 1.48864 22.7344 1.45455 22.625 1.45455H2.375ZM22.625 14.5455C22.7344 14.5455 22.8242 14.5114 22.8945 14.4432C22.9648 14.375 23 14.2879 23 14.1818V5.81818H2V14.1818C2 14.2879 2.03516 14.375 2.10547 14.4432C2.17578 14.5114 2.26562 14.5455 2.375 14.5455H22.625ZM17 10.1818H20V11.6364H17V10.1818Z" fill="#2C2B2B"/>
</g>
<defs>
<clipPath id="clip0_40000780_4996">
<rect width="24" height="16" fill="white" transform="translate(0.5)"/>
</clipPath>
</defs>
</svg>
