<svg width="67" height="18" viewBox="0 0 67 18" fill="none" xmlns="http://www.w3.org/2000/svg">
<path d="M4.76134 17.389L5.06811 15.4076L4.38483 15.3915H1.12207L3.38954 0.77024C3.39647 0.726096 3.41943 0.684939 3.45286 0.655716C3.48629 0.626493 3.52917 0.610387 3.57374 0.610387H9.07527C10.9017 0.610387 12.1621 0.996899 12.8202 1.75978C13.1287 2.11767 13.3252 2.49164 13.4203 2.90321C13.5199 3.33506 13.5217 3.851 13.4243 4.48028L13.4172 4.52621V4.92941L13.7259 5.10717C13.9857 5.24733 14.192 5.40778 14.3504 5.5915C14.6145 5.89749 14.7852 6.28639 14.8572 6.74745C14.9317 7.22165 14.9071 7.7859 14.7852 8.42473C14.6443 9.15958 14.4168 9.79959 14.1095 10.3233C13.8267 10.8058 13.4665 11.206 13.039 11.5162C12.6308 11.8109 12.1457 12.0346 11.5974 12.1778C11.0659 12.3184 10.4601 12.3895 9.79553 12.3895H9.36736C9.06126 12.3895 8.76377 12.5016 8.53044 12.7027C8.29643 12.9079 8.14144 13.1881 8.094 13.4947L8.06175 13.6731L7.51979 17.1653L7.49514 17.2936C7.48872 17.3343 7.47758 17.3545 7.4612 17.3683C7.44651 17.3806 7.4254 17.389 7.40481 17.389H4.76134Z" fill="#253B80"/>
<path d="M14.0165 4.57347C14.0002 4.68023 13.9814 4.78938 13.9603 4.90152C13.2347 8.6897 10.7526 9.99835 7.58235 9.99835H5.96827C5.58062 9.99835 5.25393 10.2846 5.19348 10.6735L4.13302 17.5144C4.09368 17.7698 4.28734 18 4.54059 18H7.40355C7.74257 18 8.03044 17.7495 8.08379 17.4095L8.11199 17.2615L8.65108 13.7829L8.68569 13.5921C8.73837 13.251 9.02691 13.0005 9.36593 13.0005H9.7941C12.5677 13.0005 14.7392 11.8552 15.3738 8.54118C15.6389 7.15677 15.5016 6.00082 14.8001 5.18782C14.5879 4.94267 14.3245 4.73928 14.0165 4.57347Z" fill="#179BD7"/>
<path d="M13.2565 4.26484C13.1458 4.23203 13.0313 4.2022 12.9139 4.17536C12.7961 4.14913 12.6752 4.12586 12.5509 4.10559C12.1157 4.03401 11.6389 4.00001 11.128 4.00001H6.81591C6.70971 4.00001 6.60892 4.02446 6.51859 4.0686C6.3197 4.16582 6.17197 4.3573 6.13618 4.5917L5.21872 10.5003L5.19238 10.6727C5.25283 10.2838 5.57952 9.99749 5.96717 9.99749H7.58125C10.7515 9.99749 13.2337 8.68825 13.9592 4.90067C13.9808 4.78854 13.9991 4.67939 14.0154 4.57263C13.8319 4.47361 13.633 4.38891 13.4189 4.31673C13.3663 4.29883 13.3117 4.28154 13.2565 4.26484Z" fill="#222D65"/>
<path d="M6.13877 4.59222C6.17456 4.35779 6.32246 4.16633 6.52118 4.0697C6.61218 4.02556 6.71247 4.00111 6.8185 4.00111H11.1307C11.6416 4.00111 12.1184 4.0351 12.5535 4.10668C12.678 4.12696 12.7989 4.15023 12.9167 4.17646C13.034 4.20332 13.1483 4.23314 13.2593 4.26594C13.3143 4.28264 13.3688 4.29993 13.4222 4.31724C13.6363 4.3894 13.8352 4.47471 14.0187 4.57312C14.2346 3.17321 14.017 2.22005 13.2728 1.35696C12.4522 0.406789 10.9712 0 9.07618 0H3.57448C3.18734 0 2.85726 0.286291 2.79733 0.675791L0.50588 15.4473C0.460632 15.7396 0.682314 16.0033 0.972037 16.0033H4.36869L6.13877 4.59222Z" fill="#253B80"/>
<path fill-rule="evenodd" clip-rule="evenodd" d="M24.2599 3.00122H20.5265C20.271 3.00122 20.0537 3.18993 20.0139 3.44616L18.5039 13.1759C18.4739 13.3679 18.6202 13.541 18.8118 13.541H20.5942C20.8497 13.541 21.067 13.3523 21.1068 13.0955L21.5141 10.4713C21.5533 10.2143 21.7712 10.0259 22.0261 10.0259H23.208C25.6673 10.0259 27.0866 8.81631 27.4574 6.41957C27.6244 5.37101 27.4645 4.5471 26.9812 3.96993C26.4507 3.33653 25.5094 3.00122 24.2599 3.00122ZM24.6907 6.55487C24.4865 7.91641 23.4629 7.91641 22.4732 7.91641H21.9098L22.3051 5.37357C22.3285 5.22004 22.4595 5.10681 22.6124 5.10681H22.8706C23.5448 5.10681 24.1809 5.10681 24.5095 5.49732C24.7053 5.73045 24.7654 6.07655 24.6907 6.55487ZM35.42 6.51122H33.6322C33.4798 6.51122 33.3482 6.62445 33.3247 6.77824L33.2457 7.28635L33.1206 7.10226C32.7336 6.53125 31.8706 6.34049 31.0091 6.34049C29.0333 6.34049 27.346 7.86121 27.0174 9.99453C26.8466 11.0585 27.0894 12.076 27.6833 12.7856C28.2282 13.438 29.0078 13.7099 29.9352 13.7099C31.527 13.7099 32.41 12.6696 32.41 12.6696L32.3301 13.1746C32.3001 13.3677 32.4463 13.5407 32.6368 13.5407H34.2473C34.5035 13.5407 34.7195 13.352 34.7599 13.0953L35.7262 6.87632C35.7568 6.68504 35.611 6.51122 35.42 6.51122ZM32.9279 10.0477C32.7553 11.0857 31.9446 11.7825 30.9109 11.7825C30.3917 11.7825 29.9767 11.6133 29.7104 11.2926C29.4461 10.9743 29.3456 10.5209 29.4297 10.0161C29.5909 8.98679 30.4152 8.26738 31.4333 8.26738C31.9408 8.26738 32.3536 8.43863 32.6255 8.76213C32.8978 9.08897 33.0059 9.54496 32.9279 10.0477ZM43.1452 6.51097H44.9418C45.1935 6.51097 45.3402 6.79776 45.1973 7.00752L39.2218 15.7734C39.1251 15.9154 38.9657 15.9999 38.7954 15.9999H37.001C36.7484 15.9999 36.6008 15.7108 36.7471 15.5005L38.6077 12.8313L36.6289 6.92921C36.5604 6.72407 36.7094 6.51097 36.9242 6.51097H38.6895C38.9189 6.51097 39.1213 6.66399 39.1875 6.8871L40.2377 10.4518L42.7157 6.7423C42.8127 6.59749 42.9739 6.51097 43.1452 6.51097Z" fill="#253B80"/>
<path fill-rule="evenodd" clip-rule="evenodd" d="M62.6253 13.1752L64.1574 3.26753C64.1809 3.11374 64.312 3.00051 64.4644 3H66.1893C66.3798 3 66.5261 3.17356 66.496 3.36561L64.9851 13.0948C64.9456 13.3516 64.7284 13.5403 64.4725 13.5403H62.9319C62.7415 13.5403 62.5952 13.3672 62.6253 13.1752ZM50.8909 3.00051H47.1568C46.9019 3.00051 46.6847 3.18922 46.6447 3.44546L45.1348 13.1752C45.1047 13.3672 45.251 13.5403 45.4417 13.5403H47.3577C47.5358 13.5403 47.6881 13.4083 47.7159 13.2286L48.1443 10.4706C48.1838 10.2136 48.4015 10.0251 48.6564 10.0251H49.8377C52.2976 10.0251 53.7166 8.81561 54.0877 6.41886C54.2552 5.3703 54.0942 4.54639 53.6112 3.96922C53.081 3.33583 52.1404 3.00051 50.8909 3.00051ZM51.3217 6.55417C51.118 7.9157 50.0944 7.9157 49.1041 7.9157H48.5412L48.9371 5.37287C48.9606 5.21933 49.0904 5.10611 49.2438 5.10611H49.502C50.1757 5.10611 50.8124 5.10611 51.1408 5.49662C51.3368 5.72975 51.3964 6.07584 51.3217 6.55417ZM62.05 6.51052H60.2634C60.1098 6.51052 59.9795 6.62375 59.9565 6.77754L59.8774 7.28564L59.7519 7.10155C59.3648 6.53055 58.5024 6.33978 57.6409 6.33978C55.6651 6.33978 53.9783 7.8605 53.6496 9.99383C53.4793 11.0578 53.7211 12.0753 54.315 12.7849C54.861 13.4373 55.6396 13.7092 56.567 13.7092C58.1588 13.7092 59.0415 12.6689 59.0415 12.6689L58.9619 13.1739C58.9318 13.367 59.0781 13.54 59.2698 13.54H60.8796C61.1345 13.54 61.3517 13.3513 61.3917 13.0946L62.3585 6.87562C62.388 6.68434 62.2418 6.51052 62.05 6.51052ZM59.5581 10.047C59.3866 11.085 58.5749 11.7818 57.5409 11.7818C57.0227 11.7818 56.6069 11.6126 56.3404 11.2919C56.0761 10.9736 55.9768 10.5202 56.0599 10.0154C56.2219 8.98609 57.0452 8.26668 58.0633 8.26668C58.5711 8.26668 58.9836 8.43793 59.2557 8.76143C59.529 9.08827 59.6372 9.54426 59.5581 10.047Z" fill="#179BD7"/>
</svg>
