<svg width="39" height="18" viewBox="0 0 39 18" fill="none" xmlns="http://www.w3.org/2000/svg">
<path d="M7.6155 2.93111C8.1046 2.3424 8.34521 1.58635 8.28634 0.823242C7.53663 0.899897 6.84225 1.25271 6.3383 1.81304C6.09476 2.08571 5.90747 2.4038 5.78717 2.74905C5.66688 3.09429 5.61595 3.45989 5.63731 3.82487C6.01561 3.8511 6.39451 3.78312 6.7401 3.62703C7.08569 3.47093 7.38718 3.23158 7.6176 2.93041L7.6155 2.93111ZM8.28844 4.01624C7.20262 3.95245 6.27661 4.62329 5.76489 4.62329C5.25317 4.62329 4.45545 4.04848 3.59183 4.04848C3.03385 4.06482 2.48982 4.22663 2.01362 4.51791C1.53742 4.80919 1.14558 5.21982 0.876906 5.70912C-0.272714 7.72166 0.554451 10.691 1.70758 12.3194C2.25014 13.1179 2.92098 14.0123 3.7832 13.9801C4.61387 13.9485 4.93282 13.441 5.92261 13.441C6.91241 13.441 7.19981 13.9836 8.09567 13.952C8.99153 13.9205 9.56775 13.1536 10.1075 12.3236C10.5024 11.757 10.8035 11.1305 10.9992 10.4681C10.5088 10.2586 10.0859 9.91766 9.77719 9.48292C9.46844 9.04817 9.28585 8.53656 9.24959 8.00457C9.21333 7.47258 9.3248 6.94092 9.57169 6.46831C9.81859 5.99569 10.1913 5.6005 10.6487 5.32638C10.3862 4.93714 10.0354 4.61557 9.62476 4.38797C9.21416 4.16038 8.75551 4.03323 8.28634 4.01694" fill="black"/>
<path d="M17.6005 1.74885C18.1293 1.72116 18.658 1.80437 19.1528 1.99314C19.6475 2.18191 20.0973 2.47207 20.4732 2.84498C20.8492 3.21788 21.143 3.6653 21.3357 4.15848C21.5285 4.65167 21.616 5.17972 21.5926 5.70873C21.6148 6.24438 21.5246 6.77874 21.3278 7.27741C21.131 7.77608 20.8319 8.22801 20.4498 8.60408C20.0677 8.98015 19.6111 9.27203 19.1094 9.46093C18.6077 9.64983 18.0719 9.73156 17.5367 9.70085H14.95V13.8205H13.0658V1.74885H17.6005ZM14.95 8.13625H17.0895C18.7179 8.13625 19.6446 7.24179 19.6446 5.74097C19.6446 4.20791 18.7186 3.3457 17.0895 3.3457H14.9164V8.13625H14.95ZM22.0714 11.3608C22.0714 9.82773 23.2532 8.86948 25.3611 8.7419L27.7865 8.61852V7.94768C27.7865 6.95789 27.1157 6.38308 26.0299 6.38308C25.6179 6.32981 25.2009 6.43079 24.859 6.66659C24.5171 6.90238 24.2744 7.25632 24.1778 7.66027H22.4534C22.5495 6.06343 23.9255 4.88156 26.0943 4.88156C28.2338 4.88156 29.607 5.99964 29.607 7.78785V13.8556H27.8826V12.4186H27.8503C27.5741 12.9105 27.1701 13.3186 26.6809 13.5997C26.1918 13.8808 25.6357 14.0245 25.0716 14.0154C23.2855 14.0119 22.0714 12.9261 22.0714 11.3615V11.3608ZM27.7865 10.5631V9.86208L25.6135 9.98966C24.5276 10.0534 23.9206 10.5322 23.9206 11.2991C23.9206 12.066 24.5592 12.5763 25.5174 12.5763C25.7996 12.5978 26.0832 12.5623 26.3514 12.472C26.6196 12.3817 26.8669 12.2384 27.0786 12.0506C27.2903 11.8627 27.4621 11.6343 27.5837 11.3787C27.7053 11.1232 27.7743 10.8458 27.7865 10.5631ZM31.2038 17.1096V15.6375C31.3942 15.6642 31.5865 15.6749 31.7786 15.6698C32.1481 15.6962 32.5141 15.5828 32.8039 15.352C33.0937 15.1213 33.2862 14.7901 33.3433 14.4241C33.3433 14.3919 33.5031 13.8815 33.5031 13.8815L30.3101 5.07013H32.2588L34.495 12.2559H34.5272L36.7592 5.07013H38.675L35.3887 14.3666C34.6226 16.506 33.7603 17.1769 31.9399 17.1769C31.8123 17.1418 31.3616 17.1418 31.2052 17.1096H31.2038Z" fill="black"/>
</svg>
