<svg viewBox="0 0 78 41" fill="none" xmlns="http://www.w3.org/2000/svg">
<path d="M18.2949 32.981C18.2458 32.4828 18.1181 32.0335 17.9117 31.633C17.7053 31.2325 17.4204 30.915 17.0568 30.6806C16.6932 30.4364 16.2411 30.3191 15.7007 30.3289C15.1504 30.3289 14.7131 30.4803 14.3888 30.7831C14.0645 31.0859 13.9024 31.4522 13.9024 31.882C13.9024 32.263 14.0105 32.5854 14.2267 32.8491C14.4428 33.1031 14.7327 33.3326 15.0963 33.5378C15.4697 33.7429 15.8874 33.948 16.3492 34.1531C16.7227 34.3094 17.101 34.4853 17.4842 34.6806C17.8675 34.876 18.2163 35.1007 18.5308 35.3546C18.8452 35.5988 19.0958 35.8968 19.2825 36.2484C19.4692 36.5903 19.5626 36.9957 19.5626 37.4646C19.5626 38.0116 19.4201 38.5 19.1351 38.9298C18.8502 39.3596 18.4423 39.6966 17.9117 39.9408C17.3909 40.185 16.7571 40.3071 16.0102 40.3071C15.5877 40.3071 15.1406 40.2436 14.6689 40.1166C14.207 39.9896 13.7845 39.8089 13.4012 39.5745L13.4749 40.1899H12.5758L12.5168 36.9664H13.2243C13.3029 37.8162 13.6076 38.4609 14.1382 38.9005C14.6787 39.3303 15.3223 39.5452 16.0692 39.5452C16.4426 39.5452 16.7816 39.4768 17.0863 39.34C17.3909 39.2033 17.6316 39.0079 17.8085 38.7539C17.9854 38.5 18.0738 38.202 18.0738 37.8602C18.0738 37.4597 17.951 37.1227 17.7053 36.8492C17.4695 36.5756 17.1649 36.3412 16.7914 36.1458C16.4279 35.9505 16.0446 35.7649 15.6417 35.5891C15.2388 35.4132 14.8457 35.2276 14.4625 35.0323C14.0891 34.8369 13.7501 34.6122 13.4454 34.3583C13.1408 34.1043 12.9 33.8064 12.7232 33.4645C12.5463 33.1128 12.4578 32.7026 12.4578 32.2337C12.4578 31.9602 12.507 31.672 12.6052 31.3692C12.7035 31.0664 12.8706 30.7782 13.1064 30.5047C13.3423 30.2312 13.6616 30.0114 14.0645 29.8454C14.4772 29.6696 14.9931 29.5816 15.6122 29.5816C15.9857 29.5816 16.4033 29.6354 16.8652 29.7428C17.3368 29.8503 17.7643 30.0407 18.1475 30.3143L18.0886 29.6989H18.973V32.981H18.2949Z" fill="#60604C"/>
<path d="M20.3909 40.0726V39.4133C20.6857 39.4133 20.9117 39.3352 21.069 39.1789C21.2262 39.0226 21.3589 38.8126 21.467 38.5488C21.5751 38.2753 21.693 37.9725 21.8207 37.6404L24.7982 29.5377H25.3878L28.6159 37.7576C28.6945 37.9432 28.783 38.1972 28.8813 38.5195C28.9795 38.8321 29.0237 39.1007 29.0139 39.3254C29.181 39.3058 29.3431 39.2961 29.5003 39.2961C29.6674 39.2863 29.8246 39.2765 29.972 39.2668V40.0726H26.3902V39.4279C26.7341 39.4182 26.9601 39.3449 27.0682 39.2082C27.1861 39.0616 27.2304 38.8858 27.2009 38.6807C27.1812 38.4756 27.1321 38.2704 27.0535 38.0653L26.6113 36.8785L22.9999 36.9664L22.5725 38.2411C22.5135 38.4365 22.4496 38.6221 22.3808 38.7979C22.3121 38.9737 22.2433 39.1447 22.1745 39.3107C22.3514 39.2912 22.5381 39.2814 22.7346 39.2814C22.941 39.2717 23.1228 39.2619 23.28 39.2521V40.0726H20.3909ZM23.2653 36.1752H26.3607L25.4321 33.6989C25.3141 33.3766 25.2011 33.0591 25.093 32.7465C24.9849 32.4242 24.8867 32.1165 24.7982 31.8234H24.7835C24.7049 32.0676 24.6164 32.3363 24.5182 32.6293C24.4199 32.9224 24.3069 33.2398 24.1791 33.5817L23.2653 36.1752Z" fill="#60604C"/>
<path d="M38.1302 32.981C38.1204 32.4242 38.0565 31.9602 37.9386 31.589C37.8207 31.2178 37.6242 30.9394 37.349 30.7538C37.0837 30.5682 36.7152 30.4803 36.2435 30.4901H35.1822L35.1675 38.1092C35.1675 38.373 35.1626 38.6123 35.1527 38.8272C35.1527 39.0323 35.1429 39.1984 35.1233 39.3254C35.31 39.3058 35.5114 39.2961 35.7276 39.2961C35.9536 39.2863 36.1551 39.2765 36.3319 39.2668V40.0726H32.5879V39.4279C32.9122 39.4084 33.1432 39.34 33.2807 39.2228C33.4183 39.1056 33.5067 38.9298 33.5461 38.6953C33.5854 38.4511 33.605 38.1532 33.605 37.8015V30.5047L32.3668 30.5194C31.7674 30.5194 31.3301 30.7196 31.055 31.1201C30.7798 31.5206 30.6422 32.1409 30.6422 32.981H29.9495L30.0379 29.8161H38.7346L38.823 32.981H38.1302Z" fill="#60604C"/>
<path d="M45.2583 40.3071C44.3247 40.3071 43.5238 40.1508 42.8556 39.8382C42.1972 39.5256 41.6617 39.1105 41.2489 38.5928C40.8362 38.0653 40.5316 37.4841 40.3351 36.8492C40.1385 36.2142 40.0402 35.5793 40.0402 34.9444C40.0402 34.329 40.1434 33.7087 40.3498 33.0835C40.566 32.4486 40.8853 31.8674 41.3079 31.3399C41.7403 30.8124 42.2758 30.3875 42.9146 30.0652C43.5631 29.7428 44.3198 29.5816 45.1846 29.5816C46.0886 29.5816 46.8649 29.7428 47.5135 30.0652C48.1719 30.3875 48.7124 30.8173 49.1349 31.3546C49.5575 31.882 49.8719 32.4584 50.0783 33.0835C50.2945 33.7087 50.4026 34.329 50.4026 34.9444C50.4026 35.55 50.2945 36.1703 50.0783 36.8052C49.8719 37.4304 49.5526 38.0116 49.1202 38.5488C48.6976 39.0763 48.167 39.5012 47.5282 39.8236C46.8895 40.1459 46.1328 40.3071 45.2583 40.3071ZM45.332 39.5452C45.9019 39.5452 46.3933 39.4182 46.806 39.1642C47.2285 38.9102 47.5725 38.5732 47.8378 38.1532C48.1129 37.7234 48.3144 37.2545 48.4421 36.7466C48.5699 36.2289 48.6338 35.716 48.6338 35.2081C48.6338 34.5829 48.5601 33.9822 48.4127 33.4059C48.2653 32.8198 48.0392 32.2972 47.7346 31.8381C47.4398 31.3692 47.0713 31.0029 46.6291 30.7392C46.1869 30.4657 45.6759 30.3289 45.0961 30.3289C44.5262 30.3289 44.0299 30.4608 43.6074 30.7245C43.1848 30.9883 42.8409 31.335 42.5756 31.7648C42.3102 32.1849 42.1088 32.6537 41.9712 33.1714C41.8435 33.6794 41.7796 34.1922 41.7796 34.7099C41.7796 35.2179 41.8484 35.7551 41.9859 36.3217C42.1235 36.8882 42.3348 37.4157 42.6198 37.9041C42.9048 38.3925 43.2683 38.7881 43.7105 39.0909C44.1626 39.3938 44.7031 39.5452 45.332 39.5452Z" fill="#60604C"/>
<path d="M51.941 40.0726V39.4279C52.2653 39.4084 52.4962 39.34 52.6338 39.2228C52.7812 39.1056 52.8745 38.9298 52.9138 38.6953C52.9531 38.4609 52.9728 38.163 52.9728 37.8015V31.7062C52.9728 31.4913 52.9777 31.2862 52.9875 31.0908C52.9973 30.8857 53.0072 30.7099 53.017 30.5633C52.8499 30.5731 52.6681 30.5829 52.4716 30.5926C52.2751 30.6024 52.0982 30.6122 51.941 30.622V29.8161C52.5404 29.8063 53.1447 29.8014 53.754 29.8014C54.3633 29.7917 54.9774 29.7917 55.5965 29.8014C56.5202 29.8014 57.2818 29.9089 57.8812 30.1238C58.4807 30.3289 58.9278 30.6366 59.2226 31.0469C59.5272 31.4571 59.6746 31.9748 59.6648 32.6C59.6746 32.9907 59.596 33.3815 59.429 33.7722C59.2619 34.1531 58.9818 34.495 58.5888 34.7978C58.1957 35.1007 57.6552 35.3302 56.9674 35.4865C57.1639 35.6037 57.3408 35.7649 57.498 35.97C57.6552 36.1752 57.8174 36.4047 57.9844 36.6587L58.8836 38.036C59.0703 38.329 59.2423 38.5781 59.3995 38.7833C59.5567 38.9884 59.7336 39.1496 59.9301 39.2668C60.1267 39.3742 60.3625 39.4279 60.6377 39.4279V40.0726H58.5888C58.3333 39.8577 58.1122 39.6282 57.9255 39.384C57.7486 39.13 57.557 38.8467 57.3506 38.5342L56.3335 36.8931C56.2058 36.6978 56.0682 36.4877 55.9208 36.2631C55.7832 36.0384 55.6309 35.8479 55.4639 35.6916C55.3066 35.6916 55.1494 35.6916 54.9922 35.6916C54.8448 35.6916 54.6925 35.6916 54.5352 35.6916V38.1092C54.5352 38.373 54.5303 38.6123 54.5205 38.8272C54.5205 39.0323 54.5107 39.1984 54.491 39.3254C54.6089 39.3156 54.7318 39.3107 54.8595 39.3107C54.9971 39.301 55.1297 39.2912 55.2575 39.2814C55.3951 39.2717 55.513 39.2668 55.6113 39.2668V40.0726H51.941ZM55.3902 34.9737C55.9306 34.9639 56.3925 34.8809 56.7757 34.7246C57.159 34.5585 57.4538 34.3094 57.6601 33.9773C57.8665 33.6354 57.9697 33.1959 57.9697 32.6586C57.9697 32.2581 57.9107 31.9211 57.7928 31.6476C57.6749 31.3741 57.5078 31.1543 57.2916 30.9883C57.0755 30.8124 56.815 30.6903 56.5104 30.622C56.2156 30.5438 55.8962 30.5047 55.5523 30.5047C55.2378 30.5047 55.0069 30.5633 54.8595 30.6806C54.7219 30.7978 54.6335 30.9687 54.5942 31.1934C54.5549 31.4181 54.5352 31.7062 54.5352 32.0579V34.9297C54.6826 34.9395 54.8202 34.9541 54.948 34.9737C55.0855 34.9834 55.2329 34.9834 55.3902 34.9737Z" fill="#60604C"/>
<path d="M65.4055 30.4608C65.0911 30.4705 64.8601 30.5389 64.7127 30.6659C64.5653 30.7831 64.472 30.959 64.4327 31.1934C64.3934 31.4181 64.3737 31.716 64.3737 32.0872V38.1092C64.3737 38.373 64.3688 38.6123 64.359 38.8272C64.359 39.0323 64.3491 39.1984 64.3295 39.3254C64.4965 39.3058 64.6783 39.2961 64.8749 39.2961C65.0812 39.2863 65.2581 39.2765 65.4055 39.2668V40.0726H61.7794V39.4279C62.1037 39.4084 62.3347 39.34 62.4722 39.2228C62.6196 39.1056 62.713 38.9298 62.7523 38.6953C62.7916 38.4609 62.8113 38.163 62.8113 37.8015V31.7062C62.8113 31.4913 62.8162 31.2862 62.826 31.0908C62.8358 30.8857 62.8457 30.7099 62.8555 30.5633C62.6884 30.5731 62.5066 30.5829 62.3101 30.5926C62.1136 30.6024 61.9367 30.6122 61.7794 30.622V29.8161H65.4055V30.4608Z" fill="#60604C"/>
<path d="M39.9131 3.6834C40.0016 3.63293 40.0717 3.6487 40.1201 3.72915C40.1702 3.80013 40.1552 3.8648 40.0751 3.92474C39.6694 4.19605 39.2586 4.41689 38.8429 4.58724C38.4272 4.7576 38.0098 4.88852 37.589 4.97844C37.1683 5.06835 36.7459 5.12829 36.3201 5.15826C35.8944 5.18823 35.4686 5.19769 35.0446 5.18823C34.9945 5.2387 34.8075 5.45165 34.4802 5.82707C34.153 6.20249 33.7523 6.67413 33.2781 7.24198C32.804 7.80827 32.2881 8.43607 31.7337 9.12223C31.1794 9.80997 30.6502 10.4961 30.146 11.1839C29.6417 11.8716 29.196 12.5183 28.8103 13.1241C28.4246 13.7314 28.1591 14.2377 28.0155 14.6431C27.872 15.05 27.887 15.3182 28.0606 15.4475C28.2343 15.5785 28.6316 15.5075 29.2561 15.2362C29.6518 15.0658 30.0725 14.845 30.5183 14.5737C30.9641 14.3024 31.4082 14.0153 31.854 13.7093C32.2997 13.4033 32.7338 13.0878 33.1596 12.7613C33.5853 12.4347 33.9727 12.1287 34.325 11.8432C34.6756 11.5577 34.9828 11.3022 35.2449 11.0766C35.507 10.851 35.7024 10.6838 35.8309 10.5718C35.9094 10.5119 35.9795 10.5166 36.038 10.5876C36.0981 10.6586 36.0931 10.728 36.0229 10.799C35.9829 10.8384 35.8593 10.9488 35.6523 11.1302C35.4436 11.3101 35.1815 11.5341 34.8659 11.7991C34.5487 12.0656 34.1881 12.359 33.7823 12.6792C33.3766 13.001 32.9509 13.3212 32.5068 13.6414C32.061 13.9632 31.6069 14.2708 31.141 14.5674C30.6752 14.8639 30.2278 15.1195 29.797 15.334C29.3663 15.5501 28.9639 15.7078 28.5866 15.8072C28.2109 15.9066 27.8836 15.9271 27.6065 15.8671C27.2509 15.7772 27.0522 15.569 27.0121 15.2425C26.972 14.916 27.0472 14.5106 27.2342 14.0232C27.4228 13.5373 27.7 12.9947 28.0656 12.3985C28.4313 11.8022 28.837 11.1918 29.2828 10.5703C29.7286 9.94878 30.191 9.33675 30.6702 8.73419C31.1494 8.13163 31.6002 7.5827 32.0209 7.0874C32.4417 6.59052 32.8073 6.16936 33.1195 5.82391C33.4317 5.47847 33.6421 5.24501 33.7506 5.12355C33.2848 5.09358 32.8156 5.06046 32.3398 5.02576C31.8656 4.99105 31.4015 4.97528 30.9524 4.98001C30.5016 4.98474 30.0641 5.02734 29.6384 5.10778C29.2127 5.18823 28.817 5.32388 28.4513 5.51475C28.3728 5.55576 28.3077 5.53052 28.2576 5.43903C28.2176 5.35859 28.2426 5.29391 28.3311 5.24344C28.7268 5.03207 29.1525 4.8901 29.6083 4.81439C30.0625 4.73867 30.5366 4.69608 31.0258 4.68662C31.515 4.67715 32.0109 4.69451 32.5101 4.73867C33.0093 4.78442 33.5069 4.8207 34.0011 4.85224C34.2482 4.58093 34.4468 4.36168 34.5954 4.18974C34.744 4.01938 34.8642 3.88373 34.9594 3.78278C35.0529 3.6834 35.1381 3.61242 35.2115 3.57141C35.285 3.53197 35.3802 3.50831 35.4937 3.50358C35.6072 3.49885 35.7475 3.50042 35.9161 3.51147C36.0847 3.52093 36.3118 3.52724 36.599 3.52724L35.2933 4.89641C35.689 4.89641 36.083 4.87906 36.4737 4.84436C36.8644 4.80966 37.2551 4.74656 37.6458 4.65665C38.0365 4.56674 38.4205 4.4437 38.7962 4.28754C39.1718 4.13296 39.5425 3.92947 39.9098 3.67867L39.9131 3.6834Z" fill="#60604C"/>
<path d="M39.7502 1.12502C39.7702 1.02565 39.8237 0.984635 39.9138 1.00514C40.0123 1.00514 40.0524 1.05562 40.0323 1.15499C39.9923 1.49571 40.0524 1.79383 40.211 2.05095C40.3696 2.30648 40.5766 2.52732 40.8338 2.71345C41.0909 2.89958 41.3797 3.05732 41.702 3.18667C42.0225 3.31759 42.3281 3.4217 42.6152 3.50214C43.4467 2.91062 44.198 2.50366 44.8709 2.28282C45.5437 2.06199 46.1281 1.96892 46.6223 2.0052C47.1165 2.03991 47.5222 2.17556 47.8394 2.41217C48.1566 2.64878 48.3703 2.93113 48.4855 3.26238C48.5991 3.59363 48.6124 3.94539 48.5223 4.31607C48.4338 4.68676 48.2301 5.01801 47.9145 5.30983C47.6173 5.58114 47.3202 5.77358 47.0246 5.88873C46.7274 6.00388 46.4436 6.06224 46.1715 6.06224C45.8993 6.06224 45.6572 6.00703 45.4435 5.89662C45.2298 5.7862 45.0645 5.64581 44.946 5.47545C44.8274 5.3051 44.7673 5.1095 44.7673 4.88867C44.7673 4.66783 44.8458 4.44227 45.0044 4.21197L43.4016 3.9864C42.8072 4.42807 42.2095 4.93756 41.6051 5.51331C41.0007 6.09063 40.3947 6.71686 39.7869 7.39355C39.1792 8.07025 38.5698 8.78796 37.9621 9.54511C37.3526 10.3023 36.7516 11.0878 36.1589 11.9001C36.2674 11.8102 36.4277 11.6793 36.6414 11.509C36.8534 11.3386 37.0939 11.1635 37.361 10.9821C37.6281 10.8007 37.907 10.6288 38.1991 10.4631C38.4913 10.2975 38.7685 10.1729 39.0306 10.0877C39.2927 10.0026 39.5281 9.97258 39.7352 9.99782C39.9422 10.0231 40.1008 10.1351 40.2093 10.337C40.2978 10.5073 40.3012 10.7203 40.216 10.9758C40.1325 11.2313 39.999 11.5105 39.8153 11.8102C39.6316 12.1115 39.4246 12.4191 39.1925 12.7362C38.9605 13.0516 38.7401 13.3561 38.5314 13.6463C38.3227 13.9381 38.1524 14.2 38.0188 14.4366C37.8852 14.6732 37.8285 14.8577 37.8485 14.9934C37.8686 15.1291 37.9838 15.2048 38.1975 15.219C38.4095 15.2347 38.7635 15.1606 39.2593 15.0013C39.9021 14.7899 40.6034 14.5123 41.3597 14.1669C42.116 13.8214 42.8607 13.4428 43.5936 13.0311C44.3249 12.6194 45.0078 12.1983 45.6422 11.7676C46.275 11.337 46.7892 10.9395 47.1866 10.5783C47.255 10.5184 47.3252 10.5231 47.3936 10.5941C47.4537 10.6651 47.447 10.7345 47.3786 10.8054C47.023 11.1272 46.6172 11.4522 46.1614 11.7834C45.7056 12.1147 45.2231 12.4333 44.7139 12.7393C44.2047 13.0453 43.6821 13.3419 43.1478 13.6274C42.6136 13.9129 42.0893 14.1716 41.5751 14.4019C41.4064 14.4729 41.1944 14.5628 40.9373 14.6732C40.6802 14.7836 40.403 14.894 40.1058 15.0044C39.8086 15.1149 39.5014 15.2158 39.1859 15.3057C38.8686 15.3956 38.5698 15.4666 38.2876 15.5171C38.0055 15.5676 37.755 15.5818 37.538 15.5628C37.3209 15.5423 37.1623 15.4729 37.0638 15.3515C36.9553 15.2205 36.9269 15.0328 36.982 14.7868C37.0354 14.5407 37.1373 14.2646 37.2859 13.9586C37.4345 13.6526 37.6131 13.3324 37.8201 12.9964C38.0272 12.6604 38.2258 12.3402 38.4145 12.0342C38.6015 11.7282 38.7635 11.4522 38.897 11.2061C39.0306 10.96 39.099 10.7755 39.1041 10.6493C39.1091 10.5247 39.0323 10.471 38.8736 10.4915C38.715 10.512 38.4379 10.6367 38.0422 10.867C37.745 11.0373 37.4478 11.2313 37.1523 11.4459C36.8551 11.662 36.5763 11.8828 36.3142 12.1084C36.052 12.3339 35.8149 12.5548 35.6012 12.7709C35.3892 12.987 35.2222 13.1794 35.1037 13.3498C35.0152 13.3498 34.8917 13.3545 34.733 13.3655C34.5744 13.375 34.4292 13.375 34.2956 13.3655C34.162 13.3561 34.0585 13.3324 33.9834 13.2977C33.9099 13.263 33.9066 13.1999 33.9767 13.11C34.2939 12.6494 34.6078 12.2093 34.92 11.7929C35.2323 11.3765 35.5361 10.9726 35.8333 10.5815C36.8518 9.24698 37.8018 8.1018 38.6833 7.14433C39.5632 6.18685 40.3796 5.37608 41.1326 4.71515C41.3396 4.52429 41.5433 4.34604 41.742 4.18042C41.939 4.01479 42.1327 3.86179 42.3214 3.7214C42.0041 3.63149 41.6853 3.51319 41.3647 3.36807C41.0425 3.22295 40.7553 3.0447 40.5032 2.83333C40.2511 2.62196 40.0524 2.37747 39.9088 2.09669C39.7652 1.81592 39.7135 1.49413 39.7535 1.13449L39.7502 1.12502ZM45.2565 3.92331C45.4535 3.76241 45.6506 3.65988 45.8426 3.61414C46.0362 3.56839 46.2032 3.56208 46.3468 3.59205C46.4904 3.62203 46.5972 3.67723 46.6657 3.75768C46.7341 3.83813 46.7391 3.91542 46.6807 3.99113C46.6206 4.06685 46.487 4.12837 46.28 4.17884C46.073 4.22932 45.7658 4.24351 45.36 4.22459C45.1029 4.48485 45.0061 4.74828 45.0712 5.01486C45.1363 5.28144 45.2983 5.48334 45.5604 5.62373C45.8225 5.76411 46.1514 5.8067 46.5471 5.7515C46.9428 5.69629 47.3335 5.47861 47.7192 5.09688C47.9763 4.84608 48.1499 4.57319 48.2384 4.27664C48.3269 3.98167 48.3319 3.70563 48.2535 3.44851C48.1733 3.19298 48.013 2.97687 47.7709 2.80178C47.5289 2.62669 47.2166 2.53047 46.836 2.51628C46.4553 2.5005 46.0028 2.58726 45.4786 2.77181C44.9543 2.95794 44.37 3.28131 43.7272 3.74191L45.2565 3.92173V3.92331Z" fill="#60604C"/>
<path d="M53.6263 10.5747C53.6464 10.5541 53.6764 10.5447 53.7148 10.5447C53.8133 10.5447 53.8634 10.5952 53.8634 10.6945C53.8634 10.734 53.8484 10.7702 53.8183 10.8002C53.8083 10.8097 53.6748 10.9233 53.4176 11.1394C53.1605 11.3555 52.8233 11.6236 52.4075 11.9438C51.9918 12.2656 51.5226 12.6126 50.9984 12.9896C50.4741 13.365 49.9415 13.7137 49.4022 14.0354C48.863 14.3572 48.3387 14.6222 47.8295 14.8336C47.3203 15.045 46.8728 15.1491 46.4855 15.1491C46.1399 15.1491 45.8677 15.0465 45.669 14.8399C45.4703 14.6348 45.3718 14.3509 45.3718 13.9897C45.3718 13.7389 45.4219 13.466 45.5204 13.1695C45.6189 12.8745 45.7525 12.5732 45.9211 12.2672C46.0898 11.9612 46.2818 11.6631 46.5005 11.3728C46.7175 11.0826 46.9463 10.816 47.1834 10.5747C47.4805 10.2734 47.7794 10.0273 48.0816 9.83801C48.3838 9.64715 48.6476 9.55251 48.8763 9.55251C49.0149 9.55251 49.1167 9.59194 49.1802 9.67239C49.2436 9.75284 49.277 9.85221 49.277 9.97367C49.277 10.2245 49.1735 10.4705 48.9648 10.7103C48.7578 10.9516 48.5274 11.1693 48.2753 11.3649C48.0232 11.5605 47.7827 11.7309 47.5557 11.876C47.3286 12.0211 47.195 12.1236 47.155 12.1852C46.8377 12.6568 46.6007 13.0685 46.4421 13.4187C46.2834 13.7704 46.205 14.0607 46.205 14.291C46.205 14.6427 46.3836 14.8178 46.7392 14.8178C47.0064 14.8178 47.347 14.7248 47.7627 14.5402C48.1784 14.3541 48.6242 14.1222 49.0984 13.8398C49.5725 13.5591 50.0551 13.2452 50.5459 12.8997C51.0368 12.5543 51.4909 12.2246 51.9117 11.9139C52.3324 11.6031 52.6964 11.3255 53.0019 11.0794C53.3091 10.8333 53.5161 10.6661 53.6247 10.5747H53.6263ZM47.4972 11.5369C47.7143 11.4059 47.9146 11.2655 48.0983 11.1157C48.282 10.9658 48.4372 10.8255 48.5658 10.6945C48.6943 10.5636 48.7928 10.4485 48.863 10.3491C48.9314 10.2497 48.9665 10.1787 48.9665 10.1377C48.9665 10.1172 48.9565 10.1077 48.9364 10.1077C48.9064 10.1077 48.8446 10.133 48.7511 10.1835C48.6576 10.2339 48.5441 10.316 48.4105 10.4311C48.2769 10.5463 48.13 10.6945 47.9731 10.8744C47.8145 11.0542 47.6559 11.275 47.4972 11.5369Z" fill="#60604C"/>
<path d="M0 10.0196H19.9219M59.3066 10.1371H78.0002M18.2949 32.981C18.2458 32.4828 18.1181 32.0335 17.9117 31.633C17.7053 31.2325 17.4204 30.915 17.0568 30.6806C16.6932 30.4364 16.2411 30.3191 15.7007 30.3289C15.1504 30.3289 14.7131 30.4803 14.3888 30.7831C14.0645 31.0859 13.9024 31.4522 13.9024 31.882C13.9024 32.263 14.0105 32.5854 14.2267 32.8491C14.4428 33.1031 14.7327 33.3326 15.0963 33.5377C15.4697 33.7429 15.8874 33.948 16.3492 34.1531C16.7227 34.3094 17.101 34.4853 17.4842 34.6806C17.8675 34.876 18.2163 35.1007 18.5308 35.3546C18.8452 35.5988 19.0958 35.8968 19.2825 36.2484C19.4692 36.5903 19.5626 36.9957 19.5626 37.4645C19.5626 38.0116 19.4201 38.5 19.1351 38.9298C18.8502 39.3596 18.4423 39.6966 17.9117 39.9408C17.3909 40.185 16.7571 40.3071 16.0102 40.3071C15.5877 40.3071 15.1406 40.2436 14.6689 40.1166C14.207 39.9896 13.7845 39.8089 13.4012 39.5745L13.4749 40.1899H12.5758L12.5168 36.9664H13.2243C13.3029 37.8162 13.6076 38.4609 14.1382 38.9005C14.6787 39.3303 15.3223 39.5452 16.0692 39.5452C16.4426 39.5452 16.7816 39.4768 17.0863 39.34C17.3909 39.2033 17.6316 39.0079 17.8085 38.7539C17.9854 38.5 18.0738 38.202 18.0738 37.8602C18.0738 37.4597 17.951 37.1227 17.7053 36.8492C17.4695 36.5756 17.1649 36.3412 16.7914 36.1458C16.4279 35.9505 16.0446 35.7649 15.6417 35.5891C15.2388 35.4132 14.8457 35.2276 14.4625 35.0323C14.0891 34.8369 13.7501 34.6122 13.4454 34.3583C13.1408 34.1043 12.9 33.8064 12.7232 33.4645C12.5463 33.1128 12.4578 32.7026 12.4578 32.2337C12.4578 31.9602 12.507 31.672 12.6052 31.3692C12.7035 31.0664 12.8706 30.7782 13.1064 30.5047C13.3423 30.2312 13.6616 30.0114 14.0645 29.8454C14.4772 29.6696 14.9931 29.5816 15.6122 29.5816C15.9857 29.5816 16.4033 29.6354 16.8651 29.7428C17.3368 29.8503 17.7643 30.0407 18.1475 30.3143L18.0886 29.6989H18.973V32.981H18.2949ZM20.3909 40.0726V39.4133C20.6857 39.4133 20.9117 39.3352 21.069 39.1789C21.2262 39.0226 21.3589 38.8126 21.467 38.5488C21.5751 38.2753 21.693 37.9725 21.8207 37.6404L24.7982 29.5377H25.3878L28.6159 37.7576C28.6946 37.9432 28.783 38.1972 28.8813 38.5195C28.9795 38.8321 29.0237 39.1007 29.0139 39.3254C29.181 39.3058 29.3431 39.2961 29.5003 39.2961C29.6674 39.2863 29.8246 39.2765 29.972 39.2668V40.0726H26.3902V39.4279C26.7341 39.4182 26.9601 39.3449 27.0682 39.2082C27.1861 39.0616 27.2304 38.8858 27.2009 38.6807C27.1812 38.4756 27.1321 38.2704 27.0535 38.0653L26.6113 36.8785L22.9999 36.9664L22.5725 38.2411C22.5135 38.4365 22.4496 38.6221 22.3808 38.7979C22.3121 38.9737 22.2433 39.1447 22.1745 39.3107C22.3514 39.2912 22.5381 39.2814 22.7346 39.2814C22.941 39.2717 23.1228 39.2619 23.28 39.2521V40.0726H20.3909ZM23.2653 36.1752H26.3607L25.4321 33.6989C25.3141 33.3766 25.2011 33.0591 25.093 32.7465C24.9849 32.4242 24.8867 32.1165 24.7982 31.8234H24.7835C24.7049 32.0676 24.6164 32.3363 24.5182 32.6293C24.4199 32.9224 24.3069 33.2398 24.1791 33.5817L23.2653 36.1752ZM38.1302 32.981C38.1204 32.4242 38.0565 31.9602 37.9386 31.589C37.8207 31.2178 37.6242 30.9394 37.349 30.7538C37.0837 30.5682 36.7152 30.4803 36.2435 30.4901H35.1822L35.1675 38.1092C35.1675 38.373 35.1626 38.6123 35.1527 38.8272C35.1527 39.0323 35.1429 39.1984 35.1233 39.3254C35.31 39.3058 35.5114 39.2961 35.7276 39.2961C35.9536 39.2863 36.1551 39.2765 36.3319 39.2668V40.0726H32.5879V39.4279C32.9122 39.4084 33.1432 39.34 33.2807 39.2228C33.4183 39.1056 33.5067 38.9298 33.5461 38.6953C33.5854 38.4511 33.605 38.1532 33.605 37.8015V30.5047L32.3668 30.5194C31.7674 30.5194 31.3301 30.7196 31.055 31.1201C30.7798 31.5206 30.6422 32.1409 30.6422 32.981H29.9495L30.0379 29.8161H38.7346L38.823 32.981H38.1302ZM45.2583 40.3071C44.3247 40.3071 43.5238 40.1508 42.8556 39.8382C42.1972 39.5256 41.6617 39.1105 41.2489 38.5928C40.8362 38.0653 40.5316 37.4841 40.3351 36.8492C40.1385 36.2142 40.0402 35.5793 40.0402 34.9444C40.0402 34.329 40.1434 33.7087 40.3498 33.0835C40.566 32.4486 40.8854 31.8674 41.3079 31.3399C41.7403 30.8124 42.2758 30.3875 42.9146 30.0652C43.5631 29.7428 44.3198 29.5816 45.1846 29.5816C46.0886 29.5816 46.8649 29.7428 47.5135 30.0652C48.1719 30.3875 48.7124 30.8173 49.1349 31.3546C49.5575 31.882 49.8719 32.4584 50.0783 33.0835C50.2945 33.7087 50.4026 34.329 50.4026 34.9444C50.4026 35.55 50.2945 36.1703 50.0783 36.8052C49.8719 37.4304 49.5526 38.0116 49.1202 38.5488C48.6976 39.0763 48.167 39.5012 47.5282 39.8236C46.8895 40.1459 46.1328 40.3071 45.2583 40.3071ZM45.332 39.5452C45.9019 39.5452 46.3933 39.4182 46.806 39.1642C47.2285 38.9102 47.5725 38.5732 47.8378 38.1532C48.1129 37.7234 48.3144 37.2545 48.4421 36.7466C48.5699 36.2289 48.6338 35.716 48.6338 35.2081C48.6338 34.5829 48.5601 33.9822 48.4127 33.4059C48.2653 32.8198 48.0392 32.2972 47.7346 31.8381C47.4398 31.3692 47.0713 31.0029 46.6291 30.7392C46.1869 30.4657 45.6759 30.3289 45.0961 30.3289C44.5262 30.3289 44.0299 30.4608 43.6074 30.7245C43.1848 30.9883 42.8409 31.335 42.5756 31.7648C42.3102 32.1849 42.1088 32.6537 41.9712 33.1714C41.8435 33.6794 41.7796 34.1922 41.7796 34.7099C41.7796 35.2179 41.8484 35.7551 41.9859 36.3217C42.1235 36.8882 42.3348 37.4157 42.6198 37.9041C42.9048 38.3925 43.2683 38.7881 43.7105 39.0909C44.1626 39.3938 44.7031 39.5452 45.332 39.5452ZM51.941 40.0726V39.4279C52.2653 39.4084 52.4962 39.34 52.6338 39.2228C52.7812 39.1056 52.8745 38.9298 52.9138 38.6953C52.9531 38.4609 52.9728 38.163 52.9728 37.8015V31.7062C52.9728 31.4913 52.9777 31.2862 52.9875 31.0908C52.9973 30.8857 53.0072 30.7099 53.017 30.5633C52.8499 30.5731 52.6681 30.5829 52.4716 30.5926C52.2751 30.6024 52.0982 30.6122 51.941 30.622V29.8161C52.5404 29.8063 53.1447 29.8014 53.754 29.8014C54.3633 29.7917 54.9774 29.7917 55.5965 29.8014C56.5202 29.8014 57.2818 29.9089 57.8812 30.1238C58.4807 30.3289 58.9278 30.6366 59.2226 31.0469C59.5272 31.4571 59.6746 31.9748 59.6648 32.6C59.6746 32.9907 59.596 33.3815 59.429 33.7722C59.2619 34.1531 58.9818 34.495 58.5888 34.7978C58.1957 35.1007 57.6552 35.3302 56.9674 35.4865C57.1639 35.6037 57.3408 35.7649 57.498 35.97C57.6552 36.1752 57.8174 36.4047 57.9844 36.6587L58.8836 38.036C59.0703 38.329 59.2423 38.5781 59.3995 38.7833C59.5567 38.9884 59.7336 39.1496 59.9301 39.2668C60.1267 39.3742 60.3625 39.4279 60.6377 39.4279V40.0726H58.5888C58.3333 39.8577 58.1122 39.6282 57.9255 39.384C57.7486 39.13 57.557 38.8467 57.3506 38.5342L56.3335 36.8931C56.2058 36.6977 56.0682 36.4877 55.9208 36.2631C55.7832 36.0384 55.6309 35.8479 55.4639 35.6916C55.3066 35.6916 55.1494 35.6916 54.9922 35.6916C54.8448 35.6916 54.6925 35.6916 54.5352 35.6916V38.1092C54.5352 38.373 54.5303 38.6123 54.5205 38.8272C54.5205 39.0323 54.5107 39.1984 54.491 39.3254C54.6089 39.3156 54.7318 39.3107 54.8595 39.3107C54.9971 39.301 55.1298 39.2912 55.2575 39.2814C55.3951 39.2717 55.513 39.2668 55.6113 39.2668V40.0726H51.941ZM55.3902 34.9737C55.9306 34.9639 56.3925 34.8809 56.7757 34.7246C57.159 34.5585 57.4538 34.3094 57.6601 33.9773C57.8665 33.6354 57.9697 33.1959 57.9697 32.6586C57.9697 32.2581 57.9107 31.9211 57.7928 31.6476C57.6749 31.3741 57.5078 31.1543 57.2916 30.9883C57.0755 30.8124 56.815 30.6903 56.5104 30.622C56.2156 30.5438 55.8962 30.5047 55.5523 30.5047C55.2378 30.5047 55.0069 30.5633 54.8595 30.6806C54.7219 30.7978 54.6335 30.9687 54.5942 31.1934C54.5549 31.4181 54.5352 31.7062 54.5352 32.0579V34.9297C54.6826 34.9395 54.8202 34.9541 54.948 34.9737C55.0855 34.9834 55.2329 34.9834 55.3902 34.9737ZM65.4055 30.4608C65.0911 30.4705 64.8601 30.5389 64.7127 30.6659C64.5653 30.7831 64.472 30.959 64.4327 31.1934C64.3934 31.4181 64.3737 31.716 64.3737 32.0872V38.1092C64.3737 38.373 64.3688 38.6123 64.359 38.8272C64.359 39.0323 64.3491 39.1984 64.3295 39.3254C64.4965 39.3058 64.6783 39.2961 64.8749 39.2961C65.0812 39.2863 65.2581 39.2765 65.4055 39.2668V40.0726H61.7794V39.4279C62.1037 39.4084 62.3347 39.34 62.4722 39.2228C62.6196 39.1056 62.713 38.9298 62.7523 38.6953C62.7916 38.4609 62.8113 38.163 62.8113 37.8015V31.7062C62.8113 31.4913 62.8162 31.2862 62.826 31.0908C62.8358 30.8857 62.8457 30.7099 62.8555 30.5633C62.6884 30.5731 62.5066 30.5829 62.3101 30.5926C62.1136 30.6024 61.9367 30.6122 61.7794 30.622V29.8161H65.4055V30.4608ZM39.9131 3.6834C40.0016 3.63293 40.0717 3.6487 40.1201 3.72915C40.1702 3.80013 40.1552 3.8648 40.0751 3.92474C39.6694 4.19605 39.2586 4.41689 38.8429 4.58724C38.4272 4.7576 38.0098 4.88852 37.589 4.97844C37.1683 5.06835 36.7459 5.12829 36.3201 5.15826C35.8944 5.18823 35.4686 5.19769 35.0446 5.18823C34.9945 5.2387 34.8075 5.45165 34.4802 5.82707C34.153 6.20249 33.7523 6.67413 33.2781 7.24198C32.804 7.80827 32.2881 8.43607 31.7337 9.12223C31.1794 9.80997 30.6502 10.4961 30.146 11.1839C29.6417 11.8716 29.196 12.5183 28.8103 13.1241C28.4246 13.7314 28.1591 14.2377 28.0155 14.6431C27.872 15.05 27.887 15.3182 28.0606 15.4475C28.2343 15.5785 28.6316 15.5075 29.2561 15.2362C29.6518 15.0658 30.0725 14.845 30.5183 14.5737C30.9641 14.3024 31.4082 14.0153 31.854 13.7093C32.2997 13.4033 32.7338 13.0878 33.1596 12.7613C33.5853 12.4347 33.9727 12.1287 34.325 11.8432C34.6756 11.5577 34.9828 11.3022 35.2449 11.0766C35.507 10.851 35.7024 10.6838 35.8309 10.5718C35.9094 10.5119 35.9795 10.5166 36.038 10.5876C36.0981 10.6586 36.0931 10.728 36.0229 10.799C35.9829 10.8384 35.8593 10.9488 35.6523 11.1302C35.4436 11.3101 35.1815 11.5341 34.8659 11.7991C34.5487 12.0656 34.1881 12.359 33.7823 12.6792C33.3766 13.001 32.9509 13.3212 32.5068 13.6414C32.061 13.9632 31.6069 14.2708 31.141 14.5674C30.6752 14.8639 30.2278 15.1195 29.797 15.334C29.3663 15.5501 28.9639 15.7078 28.5866 15.8072C28.2109 15.9066 27.8836 15.9271 27.6065 15.8671C27.2509 15.7772 27.0522 15.569 27.0121 15.2425C26.972 14.916 27.0472 14.5106 27.2342 14.0232C27.4228 13.5373 27.7 12.9947 28.0656 12.3985C28.4313 11.8022 28.837 11.1918 29.2828 10.5703C29.7286 9.94878 30.191 9.33675 30.6702 8.73419C31.1494 8.13163 31.6002 7.5827 32.0209 7.0874C32.4417 6.59052 32.8073 6.16936 33.1195 5.82391C33.4317 5.47847 33.6421 5.24501 33.7506 5.12355C33.2848 5.09358 32.8156 5.06046 32.3398 5.02576C31.8656 4.99105 31.4015 4.97528 30.9524 4.98001C30.5016 4.98474 30.0641 5.02733 29.6384 5.10778C29.2127 5.18823 28.817 5.32388 28.4513 5.51475C28.3728 5.55576 28.3077 5.53052 28.2576 5.43903C28.2176 5.35859 28.2426 5.29391 28.3311 5.24344C28.7268 5.03207 29.1525 4.8901 29.6083 4.81439C30.0625 4.73867 30.5366 4.69608 31.0258 4.68662C31.515 4.67715 32.0109 4.69451 32.5101 4.73867C33.0093 4.78442 33.5069 4.8207 34.0011 4.85224C34.2482 4.58093 34.4468 4.36168 34.5954 4.18974C34.744 4.01938 34.8642 3.88373 34.9594 3.78278C35.0529 3.6834 35.1381 3.61242 35.2115 3.57141C35.285 3.53197 35.3802 3.50831 35.4937 3.50358C35.6072 3.49885 35.7475 3.50042 35.9161 3.51147C36.0847 3.52093 36.3118 3.52724 36.599 3.52724L35.2933 4.89641C35.689 4.89641 36.0831 4.87906 36.4737 4.84436C36.8644 4.80966 37.2551 4.74656 37.6458 4.65665C38.0365 4.56674 38.4205 4.4437 38.7962 4.28754C39.1718 4.13296 39.5425 3.92947 39.9098 3.67867L39.9131 3.6834ZM39.7502 1.12502C39.7702 1.02565 39.8237 0.984635 39.9138 1.00514C40.0123 1.00514 40.0524 1.05562 40.0324 1.15499C39.9923 1.49571 40.0524 1.79383 40.211 2.05095C40.3696 2.30648 40.5766 2.52732 40.8338 2.71345C41.0909 2.89958 41.3797 3.05732 41.702 3.18667C42.0225 3.31759 42.3281 3.4217 42.6152 3.50214C43.4467 2.91062 44.198 2.50366 44.8709 2.28282C45.5437 2.06199 46.1281 1.96892 46.6223 2.0052C47.1165 2.03991 47.5222 2.17556 47.8394 2.41217C48.1566 2.64878 48.3703 2.93113 48.4855 3.26238C48.5991 3.59363 48.6124 3.94539 48.5223 4.31607C48.4338 4.68676 48.2301 5.01801 47.9145 5.30983C47.6173 5.58114 47.3202 5.77358 47.0246 5.88873C46.7274 6.00388 46.4436 6.06224 46.1715 6.06224C45.8993 6.06224 45.6572 6.00703 45.4435 5.89662C45.2298 5.7862 45.0645 5.64581 44.946 5.47545C44.8274 5.3051 44.7673 5.1095 44.7673 4.88867C44.7673 4.66783 44.8458 4.44227 45.0044 4.21197L43.4016 3.9864C42.8072 4.42807 42.2095 4.93756 41.6051 5.51331C41.0007 6.09063 40.3947 6.71686 39.7869 7.39355C39.1792 8.07025 38.5698 8.78796 37.9621 9.54511C37.3526 10.3023 36.7516 11.0878 36.1589 11.9001C36.2674 11.8102 36.4277 11.6793 36.6414 11.509C36.8534 11.3386 37.0939 11.1635 37.361 10.9821C37.6281 10.8007 37.907 10.6288 38.1991 10.4631C38.4913 10.2975 38.7685 10.1729 39.0306 10.0877C39.2927 10.0026 39.5281 9.97258 39.7352 9.99782C39.9422 10.0231 40.1008 10.1351 40.2093 10.337C40.2978 10.5073 40.3012 10.7203 40.216 10.9758C40.1325 11.2313 39.999 11.5105 39.8153 11.8102C39.6316 12.1115 39.4246 12.4191 39.1925 12.7362C38.9605 13.0516 38.7401 13.3561 38.5314 13.6463C38.3227 13.9381 38.1524 14.2 38.0188 14.4366C37.8852 14.6732 37.8285 14.8577 37.8485 14.9934C37.8686 15.1291 37.9838 15.2048 38.1975 15.219C38.4095 15.2347 38.7635 15.1606 39.2593 15.0013C39.9021 14.7899 40.6034 14.5123 41.3597 14.1669C42.116 13.8214 42.8607 13.4428 43.5936 13.0311C44.3249 12.6194 45.0078 12.1983 45.6422 11.7676C46.275 11.337 46.7892 10.9395 47.1866 10.5783C47.255 10.5184 47.3252 10.5231 47.3936 10.5941C47.4537 10.6651 47.447 10.7345 47.3786 10.8054C47.023 11.1272 46.6172 11.4522 46.1614 11.7834C45.7056 12.1147 45.2231 12.4333 44.7139 12.7393C44.2047 13.0453 43.6821 13.3419 43.1478 13.6274C42.6136 13.9129 42.0893 14.1716 41.5751 14.4019C41.4064 14.4729 41.1944 14.5628 40.9373 14.6732C40.6802 14.7836 40.403 14.894 40.1058 15.0044C39.8086 15.1149 39.5014 15.2158 39.1859 15.3057C38.8686 15.3956 38.5698 15.4666 38.2876 15.5171C38.0055 15.5676 37.755 15.5818 37.538 15.5628C37.3209 15.5423 37.1623 15.4729 37.0638 15.3515C36.9553 15.2205 36.9269 15.0328 36.982 14.7868C37.0354 14.5407 37.1373 14.2646 37.2859 13.9586C37.4345 13.6526 37.6131 13.3324 37.8201 12.9964C38.0272 12.6604 38.2258 12.3402 38.4145 12.0342C38.6015 11.7282 38.7635 11.4522 38.897 11.2061C39.0306 10.96 39.099 10.7755 39.1041 10.6493C39.1091 10.5247 39.0323 10.471 38.8736 10.4915C38.715 10.512 38.4379 10.6367 38.0422 10.867C37.745 11.0373 37.4478 11.2313 37.1523 11.4459C36.8551 11.662 36.5763 11.8828 36.3142 12.1084C36.052 12.3339 35.8149 12.5548 35.6012 12.7709C35.3892 12.987 35.2222 13.1794 35.1037 13.3498C35.0152 13.3498 34.8917 13.3545 34.733 13.3655C34.5744 13.375 34.4292 13.375 34.2956 13.3655C34.162 13.3561 34.0585 13.3324 33.9834 13.2977C33.9099 13.263 33.9066 13.1999 33.9767 13.11C34.2939 12.6494 34.6078 12.2093 34.92 11.7929C35.2323 11.3765 35.5361 10.9726 35.8333 10.5815C36.8518 9.24698 37.8018 8.1018 38.6833 7.14433C39.5632 6.18685 40.3796 5.37608 41.1326 4.71515C41.3396 4.52429 41.5433 4.34604 41.742 4.18042C41.939 4.01479 42.1327 3.86179 42.3214 3.7214C42.0041 3.63149 41.6853 3.51318 41.3647 3.36807C41.0425 3.22295 40.7553 3.0447 40.5032 2.83333C40.2511 2.62196 40.0524 2.37747 39.9088 2.09669C39.7652 1.81592 39.7135 1.49413 39.7535 1.13449L39.7502 1.12502ZM45.2565 3.92331C45.4535 3.76241 45.6506 3.65988 45.8426 3.61414C46.0362 3.56839 46.2032 3.56208 46.3468 3.59205C46.4904 3.62202 46.5972 3.67723 46.6657 3.75768C46.7341 3.83813 46.7391 3.91542 46.6807 3.99113C46.6206 4.06685 46.487 4.12837 46.28 4.17884C46.073 4.22932 45.7658 4.24351 45.36 4.22459C45.1029 4.48485 45.0061 4.74828 45.0712 5.01486C45.1363 5.28143 45.2983 5.48334 45.5604 5.62373C45.8225 5.76412 46.1514 5.8067 46.5471 5.7515C46.9428 5.69629 47.3335 5.47861 47.7192 5.09688C47.9763 4.84608 48.1499 4.57319 48.2384 4.27664C48.3269 3.98167 48.3319 3.70563 48.2535 3.44851C48.1733 3.19298 48.013 2.97687 47.7709 2.80178C47.5288 2.62669 47.2166 2.53047 46.836 2.51628C46.4553 2.5005 46.0028 2.58726 45.4786 2.77181C44.9543 2.95795 44.37 3.28131 43.7272 3.74191L45.2565 3.92173V3.92331ZM53.6263 10.5747C53.6464 10.5541 53.6764 10.5447 53.7148 10.5447C53.8133 10.5447 53.8634 10.5952 53.8634 10.6945C53.8634 10.734 53.8484 10.7702 53.8183 10.8002C53.8083 10.8097 53.6748 10.9233 53.4176 11.1394C53.1605 11.3555 52.8233 11.6236 52.4075 11.9438C51.9918 12.2656 51.5226 12.6126 50.9984 12.9896C50.4741 13.365 49.9415 13.7137 49.4023 14.0354C48.863 14.3572 48.3387 14.6222 47.8295 14.8336C47.3203 15.045 46.8728 15.1491 46.4855 15.1491C46.1399 15.1491 45.8677 15.0465 45.669 14.8399C45.4703 14.6348 45.3718 14.3509 45.3718 13.9897C45.3718 13.7389 45.4219 13.466 45.5204 13.1695C45.6189 12.8745 45.7525 12.5732 45.9211 12.2672C46.0898 11.9612 46.2818 11.6631 46.5005 11.3728C46.7175 11.0826 46.9463 10.816 47.1834 10.5747C47.4805 10.2734 47.7794 10.0273 48.0816 9.83801C48.3838 9.64715 48.6476 9.55251 48.8763 9.55251C49.0149 9.55251 49.1167 9.59194 49.1802 9.67239C49.2436 9.75284 49.277 9.85221 49.277 9.97367C49.277 10.2245 49.1735 10.4705 48.9648 10.7103C48.7578 10.9516 48.5274 11.1693 48.2753 11.3649C48.0232 11.5605 47.7827 11.7309 47.5557 11.876C47.3286 12.0211 47.195 12.1236 47.155 12.1852C46.8377 12.6568 46.6007 13.0685 46.4421 13.4187C46.2834 13.7704 46.205 14.0607 46.205 14.291C46.205 14.6427 46.3836 14.8178 46.7392 14.8178C47.0064 14.8178 47.347 14.7248 47.7627 14.5402C48.1784 14.3541 48.6242 14.1222 49.0984 13.8398C49.5725 13.5591 50.0551 13.2452 50.5459 12.8997C51.0368 12.5543 51.4909 12.2246 51.9117 11.9139C52.3324 11.6031 52.6964 11.3255 53.0019 11.0794C53.3091 10.8333 53.5161 10.6661 53.6247 10.5747H53.6263ZM47.4972 11.5369C47.7143 11.4059 47.9146 11.2655 48.0983 11.1157C48.282 10.9658 48.4372 10.8255 48.5658 10.6945C48.6943 10.5636 48.7928 10.4485 48.863 10.3491C48.9314 10.2497 48.9665 10.1787 48.9665 10.1377C48.9665 10.1172 48.9565 10.1077 48.9364 10.1077C48.9064 10.1077 48.8446 10.133 48.7511 10.1835C48.6576 10.2339 48.5441 10.316 48.4105 10.4311C48.2769 10.5463 48.13 10.6945 47.9731 10.8744C47.8145 11.0542 47.6559 11.275 47.4972 11.5369Z" stroke="#60604C" stroke-width="0.614173" stroke-miterlimit="10"/>
</svg>
